<?xml version="1.0" encoding="UTF-8"?>
<svg xmlns="http://www.w3.org/2000/svg" viewBox="0 0 500 500">
  <defs>
    <style>
      .cls-1 {
        fill: #fff;
      }

      .cls-2 {
        fill: #fafafa;
      }

      .cls-3 {
        opacity: .6;
      }

      .cls-4 {
        fill: #f2a341;
      }

      .cls-5 {
        fill: #455a64;
      }

      .cls-6 {
        fill: #eb996e;
      }

      .cls-7 {
        opacity: .3;
      }

      .cls-8 {
        fill: #ffbe9d;
      }

      .cls-9 {
        fill: #ebebeb;
      }

      .cls-10 {
        fill: #263238;
      }
    </style>
  </defs>
  <g id="Background_Simple" data-name="Background Simple">
    <path class="cls-9" d="m442.99,111.44l-2.26-3.68c-19.04-30.98-53.46-49.66-89.76-47.39-4.67.29-9.31.91-13.89,1.88-33,6.97-61.71,31.62-73.61,63.17-7,18.56-8.95,39.93-22.24,54.66-17.29,19.17-46.63,19.77-72.44,18.98-25.8-.79-40.54-3.46-68.22,16.81-13.04,9.55-19.94,39.85-19.07,56,2.3,42.74,26.53,76.57,64.89,95.57,38.36,19,91.03,16.76,133.01,8.4,58.81-11.71,114.74-43.85,148.35-93.51,33.62-49.65,42.12-117.3,15.23-170.89Z"/>
    <circle class="cls-9" cx="165.09" cy="102.95" r="45.15" transform="translate(-24.44 146.89) rotate(-45)"/>
  </g>
  <g id="Floor">
    <path class="cls-10" d="m464.88,468.53c0,.15-97.66.26-218.11.26s-218.13-.12-218.13-.26,97.64-.26,218.13-.26,218.11.12,218.11.26Z"/>
  </g>
  <g id="Screen">
    <g>
      <g>
        <g>
          <path class="cls-1" d="m309.16,61.17h-24.97c-3.35-.02-6.07,2.82-6.06,6.32v4.53c0,3.5-2.72,6.34-6.07,6.34l-48.68-.03c-3.35,0-6.06-2.84-6.06-6.34v-4.53c0-3.5-2.71-6.34-6.06-6.34h-8.78s-21.86-.02-21.86-.02c-10.86,0-19.66,8.79-19.66,19.65l-.06,315.2c0,10.85,8.79,19.65,19.64,19.66l128.55.07c10.85,0,19.66-8.79,19.66-19.65l.06-315.2c0-10.85-8.79-19.65-19.64-19.65Z"/>
          <path class="cls-10" d="m309.16,61.17s.23,0,.67.02c.44.04,1.12-.01,1.99.15,1.74.21,4.39.77,7.37,2.55,1.5.85,3.04,2.07,4.48,3.63,1.44,1.57,2.78,3.52,3.74,5.87.97,2.34,1.5,5.07,1.47,7.98,0,2.9,0,5.99.01,9.26.02,26.19.04,64.07.07,110.88,0,46.81.02,102.55.03,164.44,0,7.74,0,15.57,0,23.49v5.96c-.02,2-.15,4.05-.75,5.99-.57,1.94-1.37,3.84-2.51,5.54-1.13,1.7-2.51,3.23-4.09,4.54-3.2,2.56-7.2,4.2-11.35,4.41-4.12.12-8.21.03-12.35.06-8.26,0-16.61,0-25.03-.01-16.84,0-33.97-.02-51.36-.03-8.69,0-17.45,0-26.27-.01-4.41,0-8.83,0-13.27,0-4.45.23-9.07-.95-12.8-3.53-3.74-2.57-6.5-6.45-7.79-10.76-.69-2.15-.82-4.44-.82-6.65,0-2.21,0-4.42,0-6.63,0-8.82,0-17.58,0-26.28,0-17.39,0-34.53.01-51.38.01-33.68.02-66.17.04-97.12.01-30.95.03-60.36.04-87.89,0-13.76.02-27.05.02-39.83,0-1.6,0-3.19,0-4.77.01-.79.07-1.59.11-2.38.14-.78.2-1.58.4-2.34.72-3.08,2.14-5.96,4.13-8.33,2.01-2.36,4.52-4.23,7.29-5.45,2.77-1.25,5.8-1.69,8.74-1.65,5.85,0,11.56.01,17.13.02,2.78,0,5.53,0,8.24.01,1.36,0,2.7,0,4.04,0,1.35-.07,2.76.3,3.87,1.08,1.11.78,1.97,1.9,2.4,3.16.5,1.26.38,2.63.4,3.88,0,.64,0,1.28,0,1.91,0,.64-.02,1.27.06,1.87.16,1.22.67,2.38,1.47,3.29.78.92,1.85,1.58,3,1.86.58.15,1.16.19,1.77.17.61,0,1.21,0,1.81,0,2.4,0,4.77,0,7.09,0,9.3.01,17.95.03,25.91.04,3.98,0,7.79.01,11.42.02.9-.02,1.82.04,2.68-.03.86-.1,1.69-.4,2.41-.85,1.44-.9,2.42-2.39,2.75-3.96.18-.79.15-1.59.15-2.39,0-.8,0-1.58,0-2.35.01-.77-.04-1.54.1-2.29.13-.75.38-1.46.74-2.11.71-1.29,1.86-2.27,3.14-2.77,1.29-.56,2.66-.39,3.9-.42,5.04.01,9.3.02,12.75.03,3.44.01,6.07.02,7.84.03,1.77.01,2.67.03,2.67.03,0,0-.9.02-2.67.03-1.77,0-4.4.01-7.84.02-3.45,0-7.71.01-12.75.02-1.25.03-2.59-.13-3.84.42-1.24.49-2.35,1.44-3.04,2.7-.35.62-.59,1.32-.71,2.05-.13.72-.09,1.49-.09,2.26,0,.77,0,1.56,0,2.35,0,.79.03,1.61-.15,2.43-.34,1.63-1.35,3.17-2.84,4.11-.74.47-1.6.78-2.5.89-.91.08-1.79.02-2.7.04-3.63,0-7.44,0-11.42,0-7.96,0-16.62,0-25.91,0-2.32,0-4.69,0-7.09,0-.6,0-1.2,0-1.81,0-.6.01-1.24-.03-1.85-.18-1.22-.3-2.35-.99-3.18-1.96-.84-.96-1.38-2.18-1.55-3.46-.09-.65-.06-1.29-.07-1.92,0-.64,0-1.27,0-1.91-.02-1.28.1-2.58-.38-3.76-.42-1.19-1.23-2.25-2.28-2.98-1.06-.73-2.35-1.08-3.67-1.01h-4.04c-2.71,0-5.46,0-8.24,0-5.57,0-11.28,0-17.13,0-2.91-.03-5.86.4-8.57,1.63-2.71,1.2-5.17,3.03-7.13,5.34-1.95,2.32-3.34,5.14-4.04,8.16-.2.75-.26,1.53-.39,2.29-.04.78-.1,1.55-.11,2.34,0,1.58,0,3.17,0,4.77,0,12.78,0,26.07,0,39.83,0,27.52,0,56.94,0,87.89,0,30.95,0,63.44,0,97.12,0,16.84,0,33.98,0,51.38,0,8.7,0,17.46,0,26.28,0,2.2,0,4.41,0,6.63,0,2.2.12,4.39.8,6.49,1.25,4.19,3.94,7.96,7.57,10.46,3.64,2.51,8.07,3.66,12.48,3.44,4.44,0,8.86,0,13.27,0,8.82,0,17.58.01,26.27.02,17.39.01,34.53.02,51.36.03,8.42,0,16.76.01,25.03.02,4.12-.02,8.26.07,12.32-.05,4.04-.2,7.93-1.79,11.05-4.28,1.54-1.28,2.88-2.77,3.99-4.42,1.11-1.65,1.89-3.5,2.44-5.39.59-1.9.71-3.88.74-5.85,0-1.99,0-3.98,0-5.96,0-7.92,0-15.76,0-23.49.03-61.89.07-117.63.09-164.44.05-46.81.08-84.69.11-110.88,0-3.27,0-6.36.01-9.26.03-2.89-.48-5.59-1.43-7.92-.94-2.33-2.27-4.27-3.69-5.84-1.43-1.56-2.95-2.78-4.44-3.63-2.95-1.78-5.59-2.36-7.32-2.59-.87-.17-1.54-.13-1.99-.18-.45-.03-.67-.05-.67-.05Z"/>
        </g>
        <g>
          <path class="cls-10" d="m312.93,97.23c0,.08-3.25.18-7.25.21-4.01.03-7.26,0-7.26-.09s3.25-.18,7.25-.21c4.01-.03,7.25,0,7.26.09Z"/>
          <path class="cls-10" d="m312.96,100.94c0,.08-3.25.18-7.25.21-4.01.03-7.26,0-7.26-.09,0-.08,3.25-.18,7.25-.21,4.01-.03,7.25,0,7.26.09Z"/>
          <path class="cls-10" d="m312.99,104.65c0,.08-3.25.18-7.25.21-4.01.03-7.26,0-7.26-.09,0-.08,3.25-.18,7.25-.21,4.01-.03,7.25,0,7.26.09Z"/>
        </g>
        <path class="cls-10" d="m181,109.01s.11-.01.3-.02c.24,0,.51-.02.84-.03.79-.02,1.83-.04,3.1-.07l-.09.09c-.01-.69-.02-1.44-.04-2.25,0-.42-.04-.81,0-1.29.08-.48.51-.91,1.04-.95.5,0,.94-.03,1.48,0,.56.07,1.03.61,1.02,1.2.01,1.05.02,2.14.04,3.28l-.14-.14c1.25-.01,2.56-.03,3.91-.04l-.15.15c-.01-1.57-.03-3.2-.04-4.87,0-.42,0-.83-.01-1.24,0-.38-.23-.64-.55-.92-.58-.57-1.15-1.13-1.71-1.68-.56-.55-1.11-1.09-1.65-1.63-.27-.27-.54-.53-.8-.79-.27-.26-.49-.54-.81-.6-.31-.08-.65-.02-.9.17-.24.2-.49.48-.73.72-.48.49-.95.96-1.4,1.41-.88.92-1.8,1.75-2.47,2.54-.28.44-.18.97-.2,1.46,0,.48,0,.94,0,1.38,0,.84,0,1.58-.01,2.22,0,.57-.01,1.03-.02,1.42,0,.33-.01.5-.02.51,0,0-.02-.15-.03-.47-.01-.38-.02-.84-.04-1.4-.01-.64-.03-1.38-.05-2.24,0-.44-.02-.91-.03-1.4,0-.25,0-.51-.01-.77,0-.28.07-.56.22-.82.72-.89,1.59-1.67,2.47-2.61.45-.46.91-.94,1.39-1.43.25-.25.46-.49.75-.75.31-.24.74-.33,1.13-.22.42.09.69.43.94.67.26.26.53.52.8.79.54.53,1.09,1.07,1.65,1.62.56.55,1.13,1.11,1.71,1.68.14.15.3.27.44.47.13.19.2.43.2.66,0,.41,0,.83.01,1.25.01,1.67.03,3.3.04,4.87v.15s-.15,0-.15,0c-1.35,0-2.65.02-3.91.02h-.14s0-.14,0-.14c0-1.13-.01-2.23-.02-3.28.02-.47-.35-.89-.79-.95-.45-.02-.98,0-1.42,0-.42.03-.77.37-.84.76-.04.39,0,.85-.02,1.25,0,.81,0,1.56,0,2.25v.09s-.09,0-.09,0c-1.29,0-2.34-.02-3.15-.02-.32,0-.59-.01-.82-.01-.18,0-.28,0-.27-.02Z"/>
      </g>
      <g>
        <path class="cls-10" d="m219.09,140.01l1.55-1.86c.8,1.09,1.76,1.67,2.91,1.67,1.51,0,2.28-.9,2.28-2.7v-7.57h-5.21v-2.28h7.93v9.71c0,3.45-1.72,5.15-4.94,5.15-1.84,0-3.51-.75-4.52-2.11Z"/>
        <path class="cls-10" d="m241.45,135.36v6.55h-2.47v-1.36c-.63.96-1.84,1.51-3.51,1.51-2.55,0-4.16-1.4-4.16-3.35s1.26-3.33,4.64-3.33h2.89v-.17c0-1.53-.92-2.43-2.78-2.43-1.26,0-2.55.42-3.39,1.11l-1.03-1.9c1.19-.92,2.93-1.38,4.73-1.38,3.22,0,5.08,1.53,5.08,4.75Zm-2.62,3.05v-1.3h-2.7c-1.78,0-2.26.67-2.26,1.48,0,.94.79,1.55,2.13,1.55s2.38-.59,2.82-1.74Z"/>
        <path class="cls-10" d="m255.8,135.51v6.4h-2.62v-6.07c0-1.99-.98-2.95-2.66-2.95-1.86,0-3.12,1.13-3.12,3.37v5.65h-2.61v-11.17h2.49v1.44c.86-1.02,2.22-1.57,3.85-1.57,2.68,0,4.67,1.53,4.67,4.89Z"/>
        <path class="cls-10" d="m269.69,137.16h-8.76c.31,1.63,1.67,2.68,3.62,2.68,1.26,0,2.24-.4,3.03-1.21l1.4,1.61c-1,1.19-2.57,1.82-4.5,1.82-3.74,0-6.17-2.41-6.17-5.73s2.45-5.71,5.77-5.71,5.65,2.28,5.65,5.77c0,.21-.02.52-.04.77Zm-8.79-1.74h6.34c-.21-1.61-1.44-2.72-3.16-2.72s-2.93,1.09-3.18,2.72Z"/>
      </g>
      <g>
        <path class="cls-10" d="m232.43,152.93c0-2.11,1.11-3.37,2.64-3.37s2.65,1.26,2.65,3.37-1.12,3.37-2.65,3.37-2.64-1.26-2.64-3.37Zm4.6,0c0-1.77-.8-2.75-1.95-2.75s-1.95.98-1.95,2.75.8,2.75,1.95,2.75,1.95-.98,1.95-2.75Z"/>
        <path class="cls-10" d="m244.34,154.5h-1.33v1.74h-.68v-1.74h-3.74v-.49l3.52-4.4h.76l-3.39,4.28h2.88v-1.54h.66v1.54h1.33v.61Z"/>
        <path class="cls-10" d="m245.03,151.73c0-.29.23-.51.5-.51s.51.22.51.51-.24.52-.51.52-.5-.23-.5-.52Zm0,4.04c0-.29.23-.51.5-.51s.51.22.51.51-.24.52-.51.52-.5-.23-.5-.52Z"/>
        <path class="cls-10" d="m251.53,154.29c0,1.13-.79,2.01-2.41,2.01-.96,0-1.87-.33-2.38-.85l.33-.54c.43.45,1.18.77,2.04.77,1.13,0,1.72-.55,1.72-1.35,0-.85-.53-1.38-2.22-1.38h-1.41l.34-3.33h3.63v.61h-3.03l-.23,2.11h.85c2,0,2.76.79,2.76,1.96Z"/>
        <path class="cls-10" d="m257.38,154.26c0,1.24-.98,2.04-2.27,2.04-1.76,0-2.72-1.22-2.72-3.32,0-2.26,1.23-3.43,3.03-3.43.6,0,1.16.1,1.57.36l-.27.55c-.34-.23-.8-.31-1.29-.31-1.43,0-2.35.92-2.35,2.72,0,.15,0,.34.03.54.33-.73,1.11-1.14,2.03-1.14,1.32,0,2.24.78,2.24,1.99Zm-.67.02c0-.87-.64-1.43-1.67-1.43s-1.71.63-1.71,1.45c0,.73.61,1.42,1.75,1.42.96,0,1.62-.56,1.62-1.44Z"/>
      </g>
      <g>
        <circle class="cls-4" cx="244.8" cy="330.23" r="22.44"/>
        <path class="cls-1" d="m234.98,333.92l4-.94c.49-.12.84-.56.84-1.06v-.83s-.17-1.4,1.15-1.49c.95-.06,6.97,0,6.97,0,0,0,1.58-.03,1.56,1.22v1.2c0,.41.27.78.67.9l4.34,1.31c.46.14.95-.09,1.14-.54l.55-1.34c.1-.25.15-.51.14-.77-.03-.52-.23-1.34-.75-2.01-.86-1.1-4.92-3.71-12.65-3.34-7.37.36-8.97,3.46-9.4,4.21-.26.46-.34,1.59-.14,2.07.08.18.2.47.32.77.21.49.74.77,1.26.64Z"/>
      </g>
      <g>
        <circle class="cls-5" cx="203.69" cy="210.73" r="16.6"/>
        <path class="cls-1" d="m203.69,214.46c-1.65,0-2.99-1.34-2.99-2.99v-6.52c0-1.65,1.34-2.99,2.99-2.99s2.99,1.34,2.99,2.99v6.52c0,1.65-1.34,2.99-2.99,2.99Zm0-11.88c-1.31,0-2.37,1.06-2.37,2.37v6.52c0,1.3,1.06,2.37,2.37,2.37s2.37-1.06,2.37-2.37v-6.52c0-1.31-1.06-2.37-2.37-2.37Z"/>
        <path class="cls-1" d="m203.69,216.56c-1.79,0-3.2-.56-4.2-1.66-1.91-2.11-1.6-5.42-1.59-5.56.02-.17.18-.3.34-.28.17.02.3.17.28.34,0,.03-.29,3.18,1.43,5.08.87.96,2.13,1.45,3.73,1.45s2.86-.49,3.79-1.45c1.83-1.91,1.73-5.06,1.73-5.1,0-.17.13-.32.3-.33.18.02.32.13.33.3,0,.14.12,3.46-1.9,5.56-1.05,1.09-2.47,1.64-4.24,1.64Z"/>
        <path class="cls-1" d="m203.69,221.15c-.17,0-.31-.14-.31-.31v-4.59c0-.17.14-.31.31-.31s.31.14.31.31v4.59c0,.17-.14.31-.31.31Z"/>
      </g>
      <g>
        <circle class="cls-5" cx="247.28" cy="210.73" r="16.6"/>
        <g>
          <circle class="cls-1" cx="242.75" cy="210.75" r="1.93"/>
          <circle class="cls-1" cx="247.28" cy="210.75" r="1.93"/>
          <circle class="cls-1" cx="251.82" cy="210.75" r="1.93"/>
          <path class="cls-1" d="m244.68,206.15c0,1.07-.86,1.93-1.93,1.93s-1.93-.86-1.93-1.93.86-1.93,1.93-1.93,1.93.86,1.93,1.93Z"/>
          <path class="cls-1" d="m249.22,206.15c0,1.07-.86,1.93-1.93,1.93s-1.93-.86-1.93-1.93.86-1.93,1.93-1.93,1.93.86,1.93,1.93Z"/>
          <path class="cls-1" d="m253.75,206.15c0,1.07-.86,1.93-1.93,1.93s-1.93-.86-1.93-1.93.86-1.93,1.93-1.93,1.93.86,1.93,1.93Z"/>
          <circle class="cls-1" cx="242.75" cy="215.32" r="1.93"/>
          <circle class="cls-1" cx="247.28" cy="215.32" r="1.93"/>
          <circle class="cls-1" cx="251.82" cy="215.32" r="1.93"/>
        </g>
      </g>
      <g>
        <circle class="cls-5" cx="290.88" cy="210.73" r="16.6"/>
        <g>
          <path class="cls-1" d="m283.08,208.56v3.93c0,.17.14.3.3.3h2.17c.07,0,.13.02.19.06l3.38,2.64c.2.16.49.01.49-.24v-9.19c0-.25-.28-.39-.48-.25l-3.28,2.35c-.05.04-.11.06-.17.06h-2.3c-.17.01-.3.15-.3.32Z"/>
          <path class="cls-1" d="m295.9,217.37c-.09,0-.18-.03-.25-.1-.16-.14-.17-.38-.03-.54,1.89-2.11,2.79-4.29,2.66-6.48-.18-3.28-2.61-5.48-2.63-5.5-.16-.14-.17-.38-.03-.54.14-.16.38-.17.54-.03.11.1,2.69,2.43,2.89,6.02.13,2.4-.83,4.77-2.86,7.03-.08.08-.18.13-.28.13Z"/>
          <path class="cls-1" d="m293.8,215.51c-.1,0-.2-.04-.28-.12-.14-.15-.14-.39.02-.54,1.34-1.26,2.02-2.63,2.02-4.07,0-2.48-2-4.4-2.02-4.42-.15-.14-.16-.38-.02-.54.15-.15.39-.16.54-.02.09.09,2.26,2.15,2.26,4.97,0,1.67-.76,3.22-2.26,4.63-.07.07-.17.1-.26.1Z"/>
          <path class="cls-1" d="m291.95,213.6c-.1,0-.2-.04-.27-.11-.15-.15-.15-.39,0-.54,2.34-2.32.08-4.94-.02-5.05-.14-.16-.12-.4.03-.54.16-.14.4-.12.54.03.03.03,2.84,3.27-.02,6.09-.07.07-.17.11-.27.11Z"/>
        </g>
      </g>
      <g>
        <circle class="cls-5" cx="203.38" cy="263.79" r="16.6" transform="translate(-83.37 433.27) rotate(-82.95)"/>
        <g>
          <path class="cls-1" d="m203.48,269.53c-.28,0-.51-.23-.51-.51v-10.47c0-.28.23-.51.51-.51s.51.23.51.51v10.47c0,.28-.23.51-.51.51Z"/>
          <path class="cls-1" d="m208.46,264.3h-10.16c-.28,0-.51-.23-.51-.51s.23-.51.51-.51h10.16c.28,0,.51.23.51.51s-.23.51-.51.51Z"/>
        </g>
      </g>
      <g>
        <circle class="cls-5" cx="289.58" cy="263.79" r="16.6" transform="translate(-7.74 518.82) rotate(-82.95)"/>
        <path class="cls-9" d="m290.72,264c1.12-.47,1.91-1.62,1.92-2.98,0-1.78-1.34-3.23-3.01-3.24-1.67,0-3.03,1.43-3.04,3.21,0,1.37.8,2.54,1.93,3.01-4.65.7-4.44,5.76-4.44,5.76l11,.05s.25-5.11-4.36-5.81Z"/>
      </g>
      <g>
        <circle class="cls-5" cx="246.48" cy="263.79" r="16.6" transform="translate(-45.55 476.05) rotate(-82.95)"/>
        <g>
          <rect class="cls-9" x="241.06" y="260.02" width="7.54" height="7.54" rx="2.09" ry="2.09"/>
          <path class="cls-9" d="m249.28,265.13v-2.55l1.91-2.04c.25-.27.71-.09.71.28v5.81c0,.36-.43.54-.69.3l-1.93-1.79Z"/>
        </g>
      </g>
    </g>
  </g>
  <g id="Character">
    <g>
      <g>
        <path class="cls-4" d="m417.82,436.15l11.7,20.89,14.02,13.86c1.01,1,.96,2.64-.1,3.58h0c-.6.53-1.4.73-2.18.55-4.93-1.16-23.04-5.51-23.81-7.09-.89-1.83-13.81-21.22-13.81-21.22l14.17-10.58Z"/>
        <g class="cls-3">
          <path class="cls-1" d="m443.45,474.49l-26.81-7.93.52.87c.45.76,1.14,1.33,1.97,1.62,2.22.77,8.39,2.74,22.08,6.03.8.19,1.64-.03,2.24-.59h0Z"/>
        </g>
        <g class="cls-3">
          <path class="cls-1" d="m416.94,457.41c.73.05,1.36.73,1.34,1.46-.02.73-.71,1.38-1.44,1.34-.73-.04-1.51-.83-1.41-1.56.1-.72.95-1.44,1.65-1.22"/>
        </g>
        <path class="cls-10" d="m433.42,468.26c.15-.01-.02-1.37.86-2.67.84-1.33,2.16-1.71,2.11-1.86-.01-.06-.37-.07-.89.15-.52.21-1.18.69-1.66,1.42-.48.73-.65,1.52-.64,2.08,0,.57.16.89.22.88Z"/>
        <path class="cls-10" d="m436.52,470.16c.15.03.42-1.03,1.3-1.97.87-.96,1.9-1.3,1.86-1.45,0-.14-1.25,0-2.25,1.09-1,1.07-1.06,2.33-.92,2.32Z"/>
        <path class="cls-10" d="m428.59,466.34c.15.04.56-1.59,1.81-3.17,1.23-1.6,2.71-2.38,2.64-2.52-.03-.13-1.73.49-3.05,2.2-1.34,1.69-1.52,3.49-1.39,3.49Z"/>
        <path class="cls-10" d="m424.5,460.29c.13.09.99-1.06,2.44-1.99,1.44-.95,2.84-1.27,2.8-1.42,0-.13-1.54-.04-3.09.98-1.56,1-2.27,2.37-2.15,2.43Z"/>
        <path class="cls-10" d="m420.91,454.24c.13.08.87-1.28,2.48-2.14,1.59-.89,3.14-.77,3.14-.93,0-.06-.37-.19-1.01-.18-.63,0-1.52.18-2.38.65-.86.47-1.49,1.12-1.84,1.65-.35.53-.45.92-.39.95Z"/>
        <path class="cls-10" d="m422.68,450.97s-.09-.32-.43-.8c-.34-.47-.92-1.12-1.83-1.68-.45-.25-.97-.61-1.71-.54-.37.03-.76.34-.85.75-.09.41.04.79.22,1.12.79,1.3,2.67,1.9,4.25,1.22,1.57-.71,2.41-2.35,2.33-3.82-.04-.37-.17-.78-.53-1.03-.36-.26-.87-.15-1.13.07-.56.45-.74,1.03-.94,1.51-.37.99-.46,1.85-.46,2.43,0,.59.07.9.1.9.1.01-.08-1.32.7-3.19.21-.45.44-.99.85-1.3.2-.15.44-.17.62-.04.18.12.29.4.31.7.05,1.22-.72,2.71-2.06,3.29-1.33.59-2.97.06-3.62-.98-.15-.25-.24-.55-.19-.78.05-.23.23-.39.46-.42.5-.08,1.02.2,1.45.43,1.76,1,2.37,2.23,2.45,2.15Z"/>
      </g>
      <g>
        <g>
          <path class="cls-4" d="m392.7,445.34l-4.76,17.13s15.81,10.59,15.24,13.84l-33.54-8.03,6.31-26.99,16.74,4.05Z"/>
          <g class="cls-3">
            <path class="cls-1" d="m377.92,458.53c-.69.02-1.31.64-1.32,1.34,0,.69.62,1.33,1.31,1.32.69,0,1.46-.73,1.39-1.42-.07-.69-.85-1.4-1.52-1.22"/>
          </g>
          <g class="cls-3">
            <path class="cls-1" d="m369.65,468.28l.74-2.7,31.88,8.71s1.34,1.01.92,2.02l-33.54-8.03Z"/>
          </g>
          <path class="cls-10" d="m388.53,462.43c-.04.16-.88.04-1.81.37-.94.31-1.53.92-1.66.82-.14-.07.34-.99,1.47-1.37,1.13-.39,2.07.04,2,.18Z"/>
          <path class="cls-10" d="m391.7,464.73c0,.17-.78.28-1.5.84-.74.54-1.06,1.25-1.22,1.21-.16-.01-.04-1,.87-1.68.9-.69,1.88-.52,1.85-.37Z"/>
          <path class="cls-10" d="m392.69,469.42c-.16,0-.19-.87.45-1.67.63-.8,1.49-.97,1.52-.82.06.16-.55.52-1.06,1.18-.53.65-.74,1.33-.91,1.31Z"/>
          <path class="cls-10" d="m389.18,458.41c-.1.13-.8-.27-1.74-.43-.94-.18-1.73-.04-1.78-.2-.07-.14.78-.58,1.89-.38,1.11.19,1.75.9,1.64,1.01Z"/>
        </g>
        <g class="cls-7">
          <polygon points="391.76 448.73 390.91 451.79 374.47 447.69 375.29 444.13 391.76 448.73"/>
        </g>
        <path class="cls-10" d="m390.08,454.93c-.01.07-.69.01-1.68-.41-.49-.21-1.06-.53-1.63-.96-.28-.22-.57-.46-.84-.74-.13-.14-.29-.28-.41-.52-.14-.21-.14-.67.13-.89.23-.22.56-.26.81-.2.25.05.44.15.61.24.35.18.67.39.96.61.57.44,1,.94,1.31,1.39.61.91.72,1.58.66,1.6-.09.04-.34-.57-.99-1.35-.32-.39-.76-.82-1.3-1.2-.27-.19-.57-.37-.89-.53-.33-.18-.63-.25-.76-.12-.05.05-.06.08,0,.2.05.11.18.24.3.38.25.26.51.5.77.72.52.43,1.03.76,1.47,1.01.9.5,1.52.69,1.49.78Z"/>
        <path class="cls-10" d="m389.81,455.12c-.06.01-.25-.65-.05-1.73.1-.53.3-1.16.67-1.78.18-.31.41-.62.67-.92.28-.28.62-.67,1.27-.59.33.07.55.39.59.64.06.25.03.45.03.66-.03.41-.13.79-.27,1.13-.28.69-.71,1.21-1.13,1.56-.86.71-1.59.74-1.59.69-.03-.1.61-.27,1.31-.99.35-.35.7-.84.91-1.45.11-.3.18-.63.2-.98.03-.37-.03-.69-.17-.68-.17-.04-.51.16-.72.41-.24.26-.45.53-.63.81-.36.56-.59,1.11-.73,1.6-.28.97-.25,1.63-.35,1.63Z"/>
      </g>
      <g>
        <path class="cls-10" d="m397.73,254.27s6.72,17.89,8.37,40.58c1.6,22.06-11.91,160.48-11.91,160.48l-26.43-4.77s5.91-48.78,8.91-72.6c2.96-23.46-8.91-105.58-8.91-105.58l28-18.1"/>
        <path class="cls-10" d="m336.55,260.51s-5.6,24.01,6.86,50.13c7.49,15.69,62.68,147.55,62.68,147.55l22.81-11.62-55.83-175.52-36.52-10.55Z"/>
        <path class="cls-5" d="m408.14,381.29c-.14.05-7.18-21.14-15.71-47.32-8.54-26.19-15.34-47.45-15.2-47.49.14-.05,7.18,21.14,15.71,47.33,8.53,26.18,15.34,47.44,15.19,47.49Z"/>
        <path class="cls-5" d="m406.09,458.2c-.14.06-11.26-25.86-24.84-57.89-13.58-32.04-24.48-58.05-24.34-58.11.14-.06,11.26,25.86,24.84,57.9,13.58,32.03,24.47,58.05,24.33,58.11Z"/>
        <path class="cls-5" d="m375.79,282.58c-.06.07-.76-.49-2-1.22-1.23-.74-3.02-1.59-5.07-2.37-1.02-.38-1.99-.74-2.91-1.08-.9-.33-1.7-.62-2.39-.78-1.38-.35-2.27-.13-2.29-.21-.03-.05.88-.42,2.36-.15.73.12,1.57.38,2.47.69.91.3,1.9.65,2.94,1.05,2.07.79,3.88,1.72,5.08,2.55,1.21.82,1.84,1.49,1.8,1.53Z"/>
        <path class="cls-5" d="m389.61,268.78c.11.1-1.64,2.15-3.77,4.68-2.13,2.53-3.85,4.6-3.97,4.51-.11-.09,1.42-2.31,3.56-4.85,2.14-2.55,4.07-4.44,4.17-4.34Z"/>
        <path class="cls-5" d="m347.94,269.31s.25.93-.11,2.42c-.36,1.45-1.42,3.44-3.42,4.7-2.02,1.26-4.24,1.27-5.69,1.23-1.49-.07-2.39-.23-2.39-.29,0-.08.92-.06,2.39-.08,1.44-.05,3.55-.13,5.41-1.3,1.86-1.17,2.91-3,3.34-4.36.43-1.38.37-2.31.47-2.31Z"/>
        <path class="cls-5" d="m399.3,265.09c-.04.13-1.62-.35-3.13-1.66-1.52-1.3-2.24-2.79-2.12-2.85.13-.08,1.01,1.21,2.46,2.44,1.44,1.25,2.85,1.92,2.79,2.06Z"/>
      </g>
      <path class="cls-10" d="m383.3,149.56c2.09.11,4.08,1.4,5.05,3.25.63,1.2.83,2.58,1.24,3.87s1.11,2.61,2.33,3.2c1.08.52,2.34.39,3.51.61,2.79.55,4.89,3.47,4.51,6.29-.05.39-.14.8.03,1.15.12.24.34.41.58.55,1.59.95,3.72.8,5.14,1.98.94.79,1.39,2.03,1.57,3.25.35,2.33-.11,4.77-1.3,6.81-.47.82-1.07,1.58-1.86,2.11-1.09.73-2.44.95-3.76,1.04-4.43.32-9.14-.68-12.46-3.63-4.39-3.89-11.39-18.65-12.16-24.47l7.57-6.02Z"/>
      <g>
        <path class="cls-4" d="m350.62,165.34l-15.72,7.54,11.16,47.2s-6.62,19.44-8.85,30.17l-2.22,10.72c22.55,15.35,45.77,13.37,64.83-6.26l-9.96-22.73,8.36-32.74-22.07-36.12-5.45-.29-20.08,2.51Z"/>
        <g class="cls-7">
          <path d="m338.64,247.42c.45-.95,9.54-8.77,10.48-9.23,13.68-6.6,22.04-.38,37.28.84.4.03,0,.3.4.34,1.74.16,4.39-.78,6.1-.53l.95,2.97c-10.28,4.1-22.19.54-32.82,3.64-3.11.91-6.07,2.38-9.27,2.91-.92.15-1.93.27-2.56.95-.35.38-.53.88-.82,1.31-.77,1.15-2.2,1.65-3.57,1.86-1.45.23-3.02.18-4.27-.59-1.25-.77-2.54-3.13-1.9-4.45Z"/>
        </g>
        <g>
          <path class="cls-8" d="m336.94,243.57c-.8.23-.52,3,1.46,2.56,4.37-.98,10.1-3.33,10.1-3.33l6.84-5.58,30.65,1.87-4.74-14.38s-31.75,3-36.23,4.82c-3.27,1.33-5.61,2.66-7.14,4.38"/>
          <path class="cls-8" d="m337.88,233.92s-.74.83-1.17,1.66c-.43.83.79,1.94.79,1.94,0,0-2.72.85-1.77,1.98.95,1.12,1.29,1.18,1.29,1.18,0,0-2.22,1.68-1.75,2.53s1.66.36,1.66.36"/>
          <path class="cls-6" d="m336.7,243.71c-.09-.1.69-.92,1.96-1.43,1.27-.52,2.41-.47,2.41-.33.01.15-1.03.34-2.21.82-1.19.47-2.06,1.06-2.16.94Z"/>
          <path class="cls-6" d="m339.68,239.52c.02.15-.61.34-1.32.66-.72.31-1.28.65-1.38.53-.1-.1.37-.66,1.17-1.02.8-.36,1.53-.32,1.54-.18Z"/>
          <path class="cls-6" d="m339.43,237.27c-.04.06-.13.08-.27.13-.15.05-.39.14-.64.17-.51.09-.95.04-.99-.1-.04-.14.37-.33.92-.42.28-.04.51-.07.71-.02.22.04.32.18.28.24Z"/>
        </g>
        <path class="cls-4" d="m376.15,163.11s13.37.35,18.55,10.54c2.59,5.08,9.35,22.5,11.72,29.84,1.6,4.97,6.92,29.94.9,32.41-7.73,3.17-21.29,3.66-21.27,3.66h-.01l-4.98-14.5c-.69-2.35.59-4.83,2.91-5.62h0l4.12.88,4.74-1.43-3.23-29.25-4.54-5.68-8.9-20.85Z"/>
        <g class="cls-7">
          <path d="m363.51,174.75c.62,2.29-.03,5.6.26,7.65,1.17,8.19,1.67,16.5.96,24.73-.04.45-.08.91.07,1.34.13.39.41.71.65,1.04,1.63,2.22,2.01,5.15,1.64,7.88-.37,2.72-1.43,5.3-2.48,7.84-.03-2.2.14-5.49.34-7.69.04-.44.26-.15.28-.59.11-2.64-.3-5.1-2.12-7-.37-.38-.79-.73-1.03-1.2-.23-.43-.28-.93-.34-1.41-1.01-9.24-1.65-18.51-1.94-27.8-.02-.53-.01-1.11.32-1.51.26-.32.68-.46,1.03-.69.72-.46,1.17-1.28,1.95-1.63"/>
        </g>
        <path class="cls-4" d="m334.9,172.87s-9.53,3.84-7.51,19.96c.99,7.93,5.72,29.34,10.75,41.66,2.37,5.81,7.87,9.86,14.1,9.13,2.72-.32,5.41.15,7.24-.92,2.78-1.63,4.07-7.22,4.67-13.27.41-4.12.32-8.42.92-11.93.97-5.73-1.63-8.48-4.99-9.2l-13.19-2.82-.86,6.99-11.13-39.6Z"/>
        <path class="cls-10" d="m351.28,221.51s.25.27.75.66c.5.39,1.33.85,2.46,1.02,1.12.18,2.5,0,3.92-.5,1.42-.52,2.99-1.21,4.26-2.38,1.26-1.17,2.01-2.73,2.26-4.2.26-1.48,0-2.86-.41-3.91-.87-2.14-2.15-3-2.06-3.07.02-.02.34.16.82.62.48.45,1.1,1.21,1.59,2.31.48,1.09.8,2.55.55,4.13-.23,1.57-1.02,3.25-2.38,4.51-1.37,1.25-2.99,1.94-4.47,2.45-1.49.5-2.96.65-4.14.41-1.19-.23-2.05-.77-2.53-1.23-.49-.46-.64-.81-.62-.82Z"/>
        <path class="cls-10" d="m337.37,232.52s.27.71.87,1.93c.59,1.22,1.63,2.92,3.34,4.63,1.7,1.7,4.18,3.35,7.27,4.15,3.06.81,6.75.8,10.15-.57,1.7-.66,2.34-2.54,3.01-4.1.62-1.62,1.04-3.26,1.33-4.84.58-3.16.75-6.07.96-8.5.21-2.38.38-4.33.51-5.77.07-.63.12-1.15.16-1.57.04-.36.07-.54.09-.54.02,0,.02.19.01.55-.02.42-.04.94-.07,1.57-.08,1.44-.2,3.4-.34,5.78-.17,2.44-.29,5.36-.86,8.56-.28,1.6-.7,3.27-1.33,4.93-.33.83-.68,1.66-1.15,2.47-.46.81-1.22,1.56-2.13,1.92-3.56,1.43-7.33,1.41-10.49.55-3.18-.86-5.7-2.59-7.41-4.36-1.72-1.78-2.72-3.55-3.27-4.8-.28-.63-.45-1.13-.55-1.48-.1-.35-.15-.53-.13-.54Z"/>
        <path class="cls-10" d="m342.49,222.86c-.07,0-.04-1.04.07-2.7.11-1.66.3-3.95.54-6.47.13-1.27.23-2.46.38-3.56.15-1.1.49-2.12,1.06-2.8.56-.68,1.24-1,1.71-1.08.48-.09.75.01.74.04,0,.05-.27.02-.69.16-.42.13-1,.47-1.47,1.11-1,1.28-.92,3.68-1.21,6.19-.24,2.52-.49,4.81-.7,6.46-.21,1.65-.37,2.67-.44,2.66Z"/>
        <path class="cls-10" d="m337.93,174.33s.41.06,1.06.4c.65.34,1.54.97,2.37,2,.85,1.01,1.59,2.42,2.14,4.06.55,1.64.92,3.5,1.35,5.42.84,3.86,1.57,7.35,2.08,9.89.25,1.27.45,2.3.57,3.01.12.71.17,1.11.14,1.12-.04,0-.15-.38-.34-1.07-.19-.7-.44-1.72-.74-2.97-.6-2.52-1.39-6-2.23-9.85-.43-1.93-.78-3.77-1.29-5.38-.51-1.61-1.19-2.98-1.97-3.98-1.55-2.05-3.2-2.54-3.14-2.62Z"/>
        <path class="cls-10" d="m398.25,238.2s-.3.08-.87.17c-.65.09-1.47.2-2.48.34-2.23.27-5.25.64-8.85,1.08l-.18.02-.06-.18c-.54-1.6-1.06-3.35-1.58-5.21-.52-1.86-1.05-3.81-1.73-5.78-.27-.77-.55-1.53-.85-2.27-.15-.37-.3-.73-.45-1.1-.14-.34-.34-.76-.38-1.17-.11-.81-.09-1.58,0-2.35.08-.84.66-1.53,1.29-1.93.65-.41,1.36-.62,2.09-.64.73,0,1.38.22,1.98.41.6.2,1.17.4,1.73.48.56.07,1.12.08,1.64.03,1.05-.09,1.96-.42,2.79-.66.82-.25,1.56-.4,2.17-.43.61-.03,1.08.03,1.4.09.31.07.47.11.47.13,0,.06-.67-.13-1.85-.02-.59.05-1.3.23-2.1.5-.81.26-1.74.63-2.84.75-.55.07-1.12.07-1.73,0-.61-.08-1.2-.29-1.8-.47-.6-.18-1.22-.37-1.84-.37-.62.02-1.28.22-1.83.58-.55.36-1,.91-1.06,1.58-.08.71-.1,1.47.01,2.2.04.36.19.66.35,1.05.16.36.31.73.46,1.11.3.74.58,1.51.86,2.29.69,1.99,1.22,3.96,1.72,5.82.5,1.86,1.01,3.6,1.52,5.2l-.24-.16c3.6-.36,6.64-.67,8.87-.89,1.01-.09,1.84-.16,2.5-.21.58-.04.89-.05.89-.03Z"/>
        <path class="cls-10" d="m399.82,220.35c.02-.06.41,0,.94.32.54.31,1.16.93,1.64,1.73.94,1.62,1.2,3.09,1.09,3.12-.16.06-.66-1.33-1.54-2.85-.45-.75-.97-1.34-1.4-1.7-.43-.37-.75-.54-.72-.62Z"/>
        <path class="cls-10" d="m389.16,220.35s-.08-.48-.09-1.36c-.01-.88.05-2.14.23-3.7.31-3.12,1.4-7.32,1.94-12.01.53-4.7.08-9.04-1.02-11.93-1.05-2.92-2.43-4.35-2.32-4.42.01-.01.1.07.26.24.15.18.39.42.64.78.53.7,1.19,1.8,1.78,3.27,1.21,2.92,1.73,7.36,1.19,12.11-.26,2.38-.7,4.61-1.11,6.63-.41,2.02-.77,3.84-.99,5.37-.23,1.54-.34,2.79-.39,3.66-.05.87-.07,1.35-.11,1.35Z"/>
        <g class="cls-7">
          <path d="m390.69,192.15c.52,1.85,1.04,3.69,1.55,5.54.55,1.97,1.11,3.96,1.19,6,.07,1.71-.2,3.42-.46,5.12-.3,1.94-.59,3.89-.91,5.82-.34,2,.29,3.57-.87,5.24l-1.99.34c.28-8.6,3.67-19.72,1.61-28.08"/>
        </g>
        <path class="cls-10" d="m382.72,174.12c.15-.05.96,2.16,1.93,4.89.97,2.73,1.86,4.89,1.73,4.96-.13.07-1.25-2.03-2.23-4.78-.98-2.74-1.56-5.03-1.43-5.07Z"/>
        <g class="cls-7">
          <path d="m347.57,203.93c-1.2-.05-2.37.43-3.38,1.09-2.2,1.43-3.81,3.72-4.54,6.24s-.6,5.27.24,7.76c.26.78.78,1.66,1.6,1.64.96-.02,1.37-1.22,1.52-2.17.41-2.64.81-5.28,1.22-7.92.14-.9.28-1.82.74-2.6.45-.79,1.29-1.42,2.2-1.35l.29-2.82"/>
        </g>
        <path class="cls-2" d="m345.62,192.68c0,.06-1.01.23-2.6.73-1.59.49-3.73,1.35-6,2.49-2.27,1.14-4.26,2.31-5.69,3.18-.62.38-1.18.72-1.69,1.03-.4.24-.63.37-.64.35-.01-.02.19-.18.57-.45.38-.28.94-.66,1.64-1.12,1.4-.92,3.38-2.12,5.67-3.27,2.29-1.15,4.46-1.98,6.08-2.42.81-.23,1.48-.37,1.94-.44.46-.07.72-.1.73-.08Z"/>
        <path class="cls-2" d="m346.99,198.56s-.24.11-.69.25c-.45.14-1.1.35-1.9.63-1.6.55-3.78,1.4-6.11,2.51-2.33,1.12-4.35,2.29-5.76,3.23-.71.46-1.27.86-1.65,1.14-.38.28-.6.43-.61.41s.18-.2.54-.51c.36-.31.9-.74,1.6-1.23,1.38-.99,3.41-2.21,5.75-3.33,2.34-1.12,4.55-1.94,6.18-2.43.81-.25,1.48-.43,1.94-.54.46-.11.72-.15.73-.13Z"/>
        <path class="cls-2" d="m399.44,185.5s-.56.16-1.47.39c-.91.23-2.16.58-3.49,1.09-1.33.51-2.5,1.08-3.32,1.53-.83.44-1.33.74-1.36.7-.02-.03.44-.4,1.25-.89.81-.5,1.97-1.11,3.32-1.63,1.35-.52,2.62-.85,3.56-1.02.93-.17,1.52-.21,1.52-.17Z"/>
        <path class="cls-2" d="m402.59,192.78c0,.05-.65.01-1.67.09-1.03.07-2.44.32-3.93.81-2.99,1.01-5.17,2.42-5.22,2.31-.02-.03.5-.41,1.41-.93.9-.52,2.2-1.18,3.72-1.68,1.52-.5,2.97-.72,4.02-.73.52-.01.95,0,1.24.05.29.04.45.07.45.09Z"/>
      </g>
      <g>
        <g>
          <g>
            <g>
              <path class="cls-10" d="m379.61,115.92c3.66,1.96,5.41,6.51,4.95,9.31-.23,1.41-.75,2.86-.37,4.23.33,1.19,1.27,2.09,2,3.09,2.44,3.33,2.42,8.24-.03,11.56-2.45,3.31-7.15,4.76-11.05,3.4"/>
              <g>
                <path class="cls-10" d="m383.06,133.93c7.08-19.33-13.84-27.18-24.63-23.23-10.14,3.71-14.17,9.2-15.35,16.26-1.18,7.06-.53,14.57,2.69,20.96,1.59,3.15,4.25,6.28,7.78,6.42"/>
                <g>
                  <g>
                    <path class="cls-8" d="m354.74,171.94l-5.01-46.54h0c-.17-1.83,1.08-3.48,2.88-3.81l18.33-6.14c5.94-1.09,10.47,5.98,11.31,11.96.93,6.64,1.8,14.78,1.38,19.82-.83,10.13-8.41,11.99-8.41,11.99,0-.05.59,8.83,1.1,17.11.08,1.38-1.26,2.41-2.57,1.97l-19.02-6.36Z"/>
                    <path class="cls-10" d="m380.5,134.14c.08.67-.42,1.29-1.12,1.39-.7.1-1.33-.36-1.42-1.03-.08-.67.42-1.3,1.12-1.39.7-.1,1.33.36,1.42,1.03Z"/>
                    <path class="cls-10" d="m367.41,135.13c.08.67-.42,1.29-1.12,1.39-.7.1-1.33-.36-1.42-1.03-.08-.67.42-1.3,1.12-1.39.7-.1,1.33.36,1.42,1.03Z"/>
                    <path class="cls-10" d="m380.57,131.34c-.14.18-1.19-.43-2.57-.27-1.38.13-2.31.95-2.48.8-.08-.07.05-.39.45-.75.4-.37,1.1-.76,1.96-.85.86-.09,1.61.15,2.06.43.46.28.64.56.57.65Z"/>
                    <path class="cls-10" d="m367.49,132.66c-.15.18-1.17-.47-2.55-.37-1.38.08-2.35.87-2.51.71-.08-.07.06-.38.48-.74.41-.35,1.13-.72,1.99-.77.86-.06,1.61.21,2.05.5.45.3.61.59.54.67Z"/>
                    <path class="cls-10" d="m373.03,142.94c-.01-.08.84-.29,2.21-.58.35-.06.68-.16.72-.4.06-.26-.11-.63-.31-1.03-.4-.83-.81-1.7-1.25-2.61-1.74-3.71-3.03-6.78-2.88-6.85.15-.07,1.68,2.89,3.42,6.6.42.92.82,1.79,1.2,2.63.16.39.43.83.29,1.37-.07.27-.32.48-.54.56-.22.09-.42.11-.59.13-1.39.18-2.26.25-2.27.18Z"/>
                    <path class="cls-6" d="m375.22,159.22s-6.7.94-13.68-2.56c0,0,3.92,6.71,13.86,5.01l-.19-2.45Z"/>
                    <path class="cls-6" d="m372.69,146.32c-.55-.62-1.44-.91-2.3-.76-.59.11-1.18.44-1.51.96-.33.52-.35,1.21.02,1.65.41.5,1.2.56,1.85.32.65-.24,1.18-.71,1.69-1.19.14-.13.28-.27.36-.44.08-.17.08-.39-.04-.51"/>
                    <path class="cls-10" d="m369.03,144.21c.22-.03.34,1.47,1.7,2.44,1.36.97,2.95.68,2.98.89.03.09-.33.32-1.01.39-.66.07-1.64-.07-2.48-.66-.83-.59-1.24-1.44-1.33-2.05-.1-.62.03-1.01.14-1.01Z"/>
                  </g>
                  <path class="cls-10" d="m367.67,130.61c-.11.39-1.5.31-3.11.63-1.61.29-2.88.86-3.12.54-.11-.15.09-.52.59-.93.5-.4,1.31-.81,2.27-.99.97-.18,1.87-.09,2.48.1.61.19.93.47.89.65Z"/>
                  <path class="cls-10" d="m379.99,127.83c-.22.33-1.2.08-2.34.15-1.15.03-2.1.37-2.35.06-.11-.15.02-.48.42-.81.39-.33,1.07-.62,1.86-.66.79-.03,1.49.2,1.91.49.43.29.59.6.49.77Z"/>
                </g>
              </g>
              <g>
                <path class="cls-8" d="m352.44,138.39c-.15-.06-5.54-1.97-5.15,4.03.39,6,6.33,4.37,6.33,4.19,0-.17-1.19-8.22-1.19-8.22Z"/>
                <path class="cls-6" d="m351.65,144.46s-.1.08-.27.17c-.17.09-.46.16-.78.07-.65-.19-1.25-1.16-1.35-2.24-.05-.54.03-1.07.19-1.52.15-.45.42-.78.73-.85.31-.09.55.08.64.25.09.16.06.28.09.29.02.01.12-.11.06-.35-.03-.12-.11-.25-.26-.36-.15-.11-.37-.15-.59-.11-.46.06-.85.52-1.03,1-.21.49-.31,1.08-.25,1.7.12,1.21.81,2.3,1.69,2.49.43.08.77-.07.95-.22.18-.16.2-.3.18-.31Z"/>
              </g>
              <path class="cls-10" d="m372.7,112.28c3.47,1.47,5.36,8.19,4.24,11.78-1.12,3.6-4.7,5.58-8.31,6.66-3.61,1.08-7.19,1.45-10.89.72-.07,2.45-1.34,5.06-3.65,5.88-3.06,1.09-6.42-1.54-7.36-4.64-.93-3.11-.14-6.44.66-9.59"/>
              <path class="cls-10" d="m347.91,136.03s.16.16.5.4c.33.24.82.58,1.46.94.64.36,1.44.75,2.42.95.96.2,2.11.21,3.18-.29,1.06-.5,1.8-1.39,2.25-2.26.45-.89.62-1.78.68-2.51.06-.74.01-1.34-.04-1.74-.05-.41-.1-.63-.13-.63-.07,0,.07.91-.08,2.34-.09.71-.27,1.56-.72,2.39-.44.82-1.14,1.64-2.11,2.1-.97.46-2.05.46-2.97.29-.93-.18-1.72-.53-2.36-.85-1.28-.67-2.04-1.18-2.07-1.12Z"/>
            </g>
            <path class="cls-5" d="m346.18,121.38s.07-.34.29-.91c.22-.57.65-1.36,1.43-2.14.77-.78,1.87-1.52,3.22-2.03,1.35-.52,2.93-.83,4.59-1.12,3.34-.52,6.28-1.43,8.32-2.27,1.03-.41,1.84-.79,2.39-1.07.28-.14.49-.25.63-.33.14-.08.22-.12.21-.13,0,0-.08.02-.23.09-.17.08-.38.17-.65.29-.56.25-1.38.61-2.41,1-2.05.8-4.98,1.68-8.31,2.2-1.66.29-3.25.61-4.62,1.15-1.37.53-2.49,1.31-3.26,2.11-.78.8-1.2,1.63-1.4,2.21-.1.3-.16.53-.18.69-.03.16-.04.25-.03.25Z"/>
          </g>
          <path class="cls-5" d="m344.95,144.26s-.11-.06-.28-.21c-.17-.15-.42-.39-.7-.74-.55-.69-1.23-1.85-1.5-3.47-.29-1.61-.05-3.67.94-5.68.5-1,1.16-1.99,2-2.91.83-.9,1.93-1.79,3.34-2.01l-.2.33c-.86-2.47-.13-5.67,2.13-7.62,1.45-1.25,3.31-1.69,4.99-1.94,1.71-.24,3.33-.38,4.84-.74,3.03-.66,5.6-1.95,7.27-3.58,1.7-1.62,2.51-3.41,2.83-4.67.33-1.27.26-2.02.32-2.02.02,0,.03.18.05.53,0,.35-.02.87-.17,1.53-.27,1.3-1.05,3.18-2.77,4.89-1.7,1.72-4.34,3.09-7.43,3.79-1.54.38-3.2.53-4.87.78-1.65.26-3.4.68-4.72,1.83-2.08,1.79-2.78,4.78-2,7.05l.1.29-.3.04c-1.23.18-2.26.97-3.07,1.83-.81.87-1.47,1.82-1.96,2.78-.99,1.92-1.25,3.88-1.02,5.44.22,1.57.83,2.72,1.32,3.42.5.71.87,1.01.84,1.04Z"/>
        </g>
        <g>
          <path class="cls-10" d="m375.11,159.16s1.11,15.1,1.94,22.81c.28,2.62.64,5.36,2.15,7.51,2.49,3.53,8.01,4.36,11.51,1.83,3.5-2.53,4.48-7.9,2.22-11.58-.79-1.29-1.97-2.78-1.3-4.14.26-.52.75-.89,1.15-1.31,2.08-2.22,1.43-5.83.1-8.56-.32-.66-.73-1.36-1.42-1.63-.75-.3-1.63,0-2.41-.21-1.7-.48-1.82-2.77-2.2-4.5-.56-2.53-2.56-5.22-5.12-5.59,0,0-2.5,4.13-6.62,5.36Z"/>
          <path class="cls-5" d="m392.78,173.36c-.11-.04.72-1.28.85-3.55.05-1.12-.11-2.48-.72-3.82-.61-1.34-1.66-2.65-3.09-3.57-.7-.46-1.53-.75-2.23-1.3-.35-.27-.66-.62-.84-1.03-.19-.41-.24-.83-.26-1.22-.04-.78.02-1.49-.16-2.09-.19-.6-.56-1.08-.96-1.47-.81-.77-1.58-1.34-1.99-1.85-.42-.5-.55-.86-.52-.87.04-.02.22.29.67.72.44.45,1.21.95,2.1,1.72.43.39.89.91,1.13,1.6.23.7.18,1.46.23,2.19.03.74.29,1.42.93,1.87.61.47,1.43.76,2.2,1.26,1.53.98,2.63,2.39,3.25,3.82.63,1.44.75,2.88.65,4.04-.1,1.17-.43,2.08-.7,2.66-.28.59-.5.88-.53.86Z"/>
          <path class="cls-5" d="m386.65,192.71s.48-.33,1.22-1.04c.73-.71,1.68-1.9,2.26-3.63.58-1.7.73-4.01-.29-6.19-1-2.2-3.01-4.03-4.9-6.16-.93-1.08-1.77-2.23-2.34-3.48-.58-1.24-.82-2.61-.67-3.87.14-1.26.51-2.37.69-3.43.19-1.05.16-2.05,0-2.94-.33-1.79-1.17-3.08-1.8-3.87-.66-.79-1.12-1.13-1.09-1.17.01-.01.13.06.36.22.22.16.53.43.89.81.7.77,1.62,2.07,2.01,3.93.21.92.25,1.99.08,3.09-.17,1.1-.52,2.22-.64,3.4-.13,1.18.1,2.43.65,3.61.54,1.18,1.35,2.29,2.26,3.35,1.84,2.09,3.9,3.98,4.94,6.31,1.06,2.32.85,4.76.2,6.51-.65,1.79-1.69,2.98-2.48,3.66-.41.33-.74.57-.98.7-.24.14-.37.2-.38.18Z"/>
        </g>
      </g>
      <g>
        <path class="cls-8" d="m346.69,208.24l3.84-36.73,10.95,4.5.89,37.42s-3.6,5.28-9.52,3.01c-5.92-2.27-6.16-8.21-6.16-8.21Z"/>
        <polygon class="cls-10" points="349.81 139.3 370.14 157.7 366.22 171.17 364.72 171.59 346.98 152.91 348.31 139.72 349.81 139.3"/>
        <polygon class="cls-5" points="348.31 139.72 368.64 158.12 364.72 171.59 345.48 153.33 348.31 139.72"/>
        <path class="cls-8" d="m361.93,177.21s2.15-2.19,2.14-5.03c0-2.77-.68-9.45-.68-9.45,0,0,3.68-7.48,3.61-8.48-.08-1-.24-.99-1.53-.6-1.29.39-5.37,7.19-5.37,7.19l-1.23-5.11s3.39-5.3,3.67-6.04c.27-.74.72-1.35-.11-1.43s-7.14,5.87-7.14,5.87l.42,5.58s-.13.44-1.02-.36-.56-7.45-.56-7.45c0,0,2.18-3.91,2.13-4.48-.04-.57.41-1.18,0-2.16-.4-.98-1.64.12-1.64.12l-4.21,5.36-1.4-5.38s.08-1.14-1.41-1.17l.33,17.4,3.58,13.44,10.42,2.18Z"/>
        <path class="cls-6" d="m362.37,213.45s-.03-.22-.05-.66c-.02-.46-.04-1.1-.07-1.92-.05-1.71-.13-4.17-.22-7.31-.16-6.34-.39-15.38-.67-26.33v-.11s.09-.08.09-.08c.85-.71,1.59-1.69,2.03-2.79.47-1.11.53-2.33.47-3.61-.09-2.55-.37-5.2-.69-7.91v-.07s.02-.07.02-.07c.69-1.42,1.39-2.89,2.06-4.39.34-.75.67-1.51.98-2.29.15-.39.3-.78.42-1.17l.08-.29c.01-.09.02-.15.03-.24-.01-.2-.04-.42-.1-.53.04-.12-.53,0-.89.12-.24.07-.33.11-.49.24-.15.12-.3.26-.44.42-.57.61-1.09,1.32-1.6,2.03-1.01,1.43-1.97,2.93-2.9,4.46l-.33.55-.15-.62c-.39-1.62-.81-3.36-1.23-5.11l-.03-.11.06-.1c.54-.86,1.13-1.79,1.72-2.73.66-1.07,1.38-2.18,1.91-3.24.11-.3.26-.6.34-.85.04-.14.02-.2.02-.19,0-.01-.17-.08-.25-.05-.03,0-.18.08-.3.15-.12.07-.25.16-.38.24-.25.17-.5.36-.74.55-1.93,1.54-3.74,3.21-5.51,4.85l.08-.21c.14,1.89.28,3.75.42,5.58v.05s0,.04,0,.04c-.09.27-.35.32-.5.3-.15-.02-.26-.07-.36-.12-.19-.11-.35-.23-.5-.36-.37-.34-.43-.78-.52-1.14-.15-.76-.18-1.49-.22-2.23-.06-1.47-.03-2.91.03-4.34v-.06s.03-.05.03-.05c.74-1.37,1.53-2.75,2.05-4.12.03-.08.05-.17.05-.21,0-.06,0-.22.01-.31.03-.21.08-.4.11-.58.07-.35.08-.68-.02-1-.11-.37-.22-.52-.5-.47-.28.05-.6.25-.84.46l.03-.03c-1.47,1.86-2.87,3.64-4.22,5.35l-.27.35-.11-.43c-.48-1.86-.94-3.66-1.38-5.39v-.03s0-.04,0-.04c0-.28-.14-.58-.37-.73-.23-.16-.54-.22-.84-.23l.2-.2c.1,7.08.19,12.95.26,17.4v-.03c.78,3.21,1.38,5.69,1.79,7.4.19.82.34,1.46.45,1.91.1.43.13.65.13.65,0,0-.08-.21-.2-.64-.12-.45-.29-1.08-.51-1.9-.44-1.7-1.09-4.18-1.92-7.37h0s0-.03,0-.03c-.1-4.45-.24-10.32-.4-17.4v-.21s.2,0,.2,0c.35,0,.73.07,1.07.3.34.24.55.63.54,1.09v-.07c.45,1.73.92,3.52,1.41,5.38l-.38-.08c1.34-1.72,2.74-3.5,4.2-5.37l.02-.02h.01c.31-.27.63-.49,1.08-.58.22-.05.53,0,.72.2.19.19.25.41.31.6.13.39.11.84.03,1.23-.04.19-.08.37-.1.54-.01.09,0,.13-.01.26,0,.16-.05.25-.07.35-.57,1.48-1.33,2.81-2.08,4.21l.03-.11c-.06,1.41-.08,2.85-.02,4.29.03.72.08,1.45.21,2.15.08.34.16.69.36.86.13.12.27.22.41.29.06.03.13.06.17.06h.01s.01.05.02.05h0s0,.02,0,.02h.02s.03.02.03.02h0c.12.05-.16-.06-.13-.05h0s0,.1,0,.1c-.14-1.83-.28-3.7-.43-5.58v-.12s.08-.08.08-.08c1.77-1.65,3.58-3.32,5.54-4.88.25-.2.5-.38.76-.57.14-.09.26-.18.41-.27.16-.08.27-.18.56-.22.22,0,.39.01.63.2.23.24.17.55.12.7-.11.35-.25.61-.35.9-.6,1.2-1.28,2.22-1.95,3.32-.59.94-1.18,1.87-1.72,2.73l.03-.2c.42,1.75.84,3.49,1.23,5.11l-.48-.07c.94-1.54,1.9-3.05,2.93-4.49.52-.72,1.04-1.43,1.65-2.08.15-.16.31-.32.5-.47.17-.15.48-.29.66-.33.21-.06.42-.12.65-.16.12-.02.25-.04.41-.01.16.01.37.17.43.32.13.28.13.5.15.72,0,.12-.02.27-.04.39l-.09.33c-.13.42-.28.82-.44,1.21-.32.79-.65,1.55-.99,2.31-.68,1.51-1.38,2.98-2.08,4.4l.02-.14c.31,2.73.58,5.38.67,7.96.06,1.27,0,2.62-.51,3.8-.49,1.18-1.24,2.18-2.19,2.97l.09-.18c.2,10.95.37,19.99.49,26.33.04,3.13.08,5.6.1,7.31,0,.82,0,1.46,0,1.92,0,.43-.02.66-.02.66Z"/>
        <path class="cls-6" d="m351.14,160.19c-.15.01-.4-2.12-.57-4.76-.17-2.65-.19-4.79-.04-4.8.15,0,.4,2.13.57,4.76.17,2.64.19,4.78.04,4.8Z"/>
      </g>
    </g>
  </g>
  <g id="Plant">
    <g>
      <path class="cls-4" d="m115.89,364.99c13.16-13.47,33.79-19.13,51.98-14.27-15.81,10.6-33.57,16.28-52.6,16.43"/>
      <g>
        <path class="cls-4" d="m133.53,302.56c-2.17-15.32,3.79-32.55,15.26-43.68.38,15.18-6.03,32.26-15.26,43.68"/>
        <path class="cls-4" d="m124.35,331.49c8.17-15.62,21.59-28.44,37.57-35.9-4.79,17.64-19.87,32.07-37.71,36.06"/>
        <path class="cls-4" d="m122.45,337.08c9.25.26,18.61-.07,27.56-2.43,8.95-2.37,17.52-6.92,23.47-14-18,.02-35.95,5.5-50.89,15.54"/>
        <path class="cls-4" d="m127.15,318.69c-4.7-17.6-12.44-29.78-26.28-39.64-1.05,8.56,1.06,17.48,5.83,24.67,4.77,7.19,12.16,12.6,20.45,14.97"/>
        <path class="cls-4" d="m92.23,349.04c-.24-10.23,6.35-20.28,15.83-24.13-.77,9.09-7.91,19.6-15.83,24.13"/>
        <path class="cls-4" d="m87.81,334.2c-1.05-14.7-11.5-28.31-25.43-33.11,3.2,14.71,11.7,26.95,25.43,33.11"/>
        <path class="cls-4" d="m94.47,360.54c-3.26-4.67-8.59-7.57-14.1-9.01-5.51-1.44-11.26-1.57-16.96-1.69,7.68,8.45,19.21,13.25,30.62,12.75"/>
        <path class="cls-4" d="m101.08,398.05c-10.26-3.17-21.7-2.35-31.41,2.25-9.71,4.6-17.59,12.93-21.64,22.88,19.27-3.66,38.28-12.22,53.05-25.13"/>
        <path class="cls-4" d="m122.23,385.01c-3.2,9.46-2.59,20.9,4.53,29.05,2.9-9.71,1.18-20.69-4.53-29.05"/>
        <path class="cls-4" d="m134.73,379.76c.89,12.17,8.67,23.59,19.66,28.88.55.26,1.18.51,1.74.29.87-.35.95-1.54.84-2.47-1.39-12.12-10.38-23.85-22.24-26.7"/>
        <path class="cls-4" d="m142.89,378.53c5.41,5.85,13.31,9.32,21.28,9.36,7.97.04,15.9-3.35,21.37-9.15-13.56-1.48-29.2-2.47-42.65-.22"/>
        <g>
          <path class="cls-10" d="m144.92,270.16s-.03.14-.12.4c-.1.28-.24.66-.41,1.15-.38,1.03-.93,2.5-1.64,4.39-.73,1.9-1.57,4.24-2.55,6.96-.49,1.36-1.01,2.81-1.57,4.35-.53,1.55-1.1,3.19-1.69,4.9-2.4,6.86-5.07,15.1-7.95,24.28-2.83,9.19-5.8,19.33-8.72,30.04-2.88,10.72-5.44,20.98-7.61,30.34-2.11,9.38-3.93,17.85-5.24,25-.34,1.79-.66,3.49-.96,5.1-.27,1.61-.53,3.14-.77,4.56-.49,2.85-.91,5.3-1.19,7.31-.31,1.99-.54,3.54-.71,4.63-.08.51-.15.91-.2,1.2-.05.27-.08.41-.08.41,0,0,0-.14.03-.41.04-.3.08-.7.15-1.21.14-1.09.35-2.65.61-4.64.25-2.02.64-4.48,1.11-7.33.23-1.43.48-2.95.74-4.57.29-1.61.6-3.32.93-5.11,1.27-7.17,3.05-15.65,5.14-25.04,2.15-9.38,4.69-19.65,7.58-30.37,2.92-10.71,5.91-20.86,8.76-30.04,2.91-9.17,5.61-17.4,8.06-24.25.61-1.71,1.18-3.35,1.73-4.89.57-1.54,1.11-2.98,1.61-4.34,1-2.71,1.87-5.04,2.63-6.93.74-1.87,1.32-3.33,1.73-4.36.2-.48.35-.85.46-1.13.11-.25.17-.38.17-.38Z"/>
          <path class="cls-10" d="m70.47,308.94s.09.07.23.22c.17.17.38.4.65.68.57.6,1.39,1.51,2.41,2.7,2.05,2.38,4.93,5.91,7.98,10.64,3.05,4.72,6.17,10.73,8.35,17.85,2.24,7.11,3.62,15.19,5.01,23.63,2.76,16.9,6.14,32.04,8.59,42.99,1.23,5.45,2.24,9.87,2.94,12.96.33,1.51.6,2.69.78,3.53.08.38.14.69.19.92.04.21.06.32.05.32s-.04-.1-.1-.31c-.06-.23-.14-.53-.24-.91-.21-.83-.5-2.01-.88-3.51-.74-3.09-1.8-7.49-3.1-12.93-2.54-10.93-5.98-26.07-8.74-42.99-1.38-8.44-2.75-16.5-4.95-23.57-2.14-7.09-5.2-13.07-8.2-17.8-2.99-4.74-5.83-8.29-7.83-10.71-1-1.21-1.79-2.13-2.33-2.76-.25-.3-.45-.53-.61-.72-.14-.16-.2-.25-.19-.26Z"/>
          <path class="cls-10" d="m146.94,377.95s-.17.05-.49.09c-.38.04-.84.09-1.4.16-.31.03-.65.06-1.01.1-.37.06-.77.12-1.2.18-.86.13-1.84.25-2.91.49-.54.11-1.1.22-1.68.33-.58.15-1.18.3-1.8.46-1.25.28-2.55.74-3.93,1.16-2.72.96-5.66,2.18-8.58,3.78-2.91,1.62-5.49,3.49-7.7,5.35-1.07.97-2.1,1.87-2.95,2.83-.91.91-1.65,1.84-2.34,2.7-.72.82-1.22,1.68-1.73,2.38-.51.7-.89,1.35-1.18,1.88-.29.48-.52.89-.72,1.21-.17.28-.27.42-.28.41-.02,0,.05-.16.19-.46.17-.34.38-.76.64-1.27.27-.55.62-1.22,1.12-1.94.49-.73.97-1.6,1.68-2.45.67-.87,1.4-1.84,2.31-2.77.85-.98,1.88-1.91,2.95-2.9,2.21-1.9,4.81-3.8,7.76-5.44,2.95-1.62,5.93-2.84,8.68-3.78,1.4-.41,2.71-.86,3.98-1.12.63-.15,1.24-.29,1.82-.43.59-.11,1.16-.21,1.7-.3,1.08-.22,2.07-.32,2.94-.42.43-.05.83-.1,1.21-.14.37-.02.71-.04,1.02-.05.56-.02,1.03-.04,1.41-.06.32,0,.49,0,.49.01Z"/>
        </g>
        <path class="cls-10" d="m150.8,309.26s-.33.36-.98.94c-.74.64-1.67,1.45-2.79,2.42-2.37,2.03-5.67,4.8-9.33,7.84-3.66,3.04-7,5.77-9.43,7.72-1.16.92-2.13,1.69-2.89,2.29-.69.53-1.08.81-1.11.79-.02-.03.33-.36.98-.94.74-.64,1.67-1.45,2.79-2.42,2.37-2.03,5.67-4.8,9.33-7.83,3.66-3.04,6.99-5.76,9.43-7.72,1.16-.92,2.13-1.69,2.9-2.29.69-.53,1.08-.81,1.11-.79Z"/>
        <path class="cls-10" d="m154.14,327.19c.04.14-7.08,2.36-15.9,4.97-8.82,2.61-16,4.61-16.04,4.47-.04-.14,7.08-2.36,15.9-4.97,8.82-2.61,16-4.61,16.04-4.47Z"/>
        <path class="cls-10" d="m127.86,320.06s-.29-.35-.73-1.02c-.5-.76-1.13-1.72-1.88-2.86-1.59-2.41-3.85-5.69-6.52-9.19-2.68-3.5-5.25-6.54-7.15-8.72-.9-1.02-1.65-1.89-2.25-2.57-.53-.61-.81-.96-.79-.98.03-.02.36.28.93.84.58.57,1.39,1.41,2.38,2.47,1.97,2.12,4.6,5.14,7.29,8.65,2.68,3.51,4.9,6.84,6.42,9.31.76,1.23,1.35,2.24,1.74,2.95.39.71.59,1.11.56,1.13Z"/>
        <path class="cls-10" d="m103.14,330.01c.06.04-.61,1.07-1.67,2.75-1.06,1.67-2.51,4-4,6.62-1.49,2.63-2.75,5.05-3.65,6.82-.89,1.77-1.44,2.87-1.51,2.84-.06-.03.36-1.18,1.18-3,.81-1.81,2.03-4.28,3.53-6.92,1.5-2.64,3-4.94,4.15-6.57,1.14-1.63,1.92-2.58,1.97-2.54Z"/>
        <path class="cls-10" d="m94.68,361.03c-.04.07-1.39-.59-3.62-1.59-2.22-1-5.33-2.31-8.83-3.54-3.51-1.23-6.75-2.14-9.11-2.74-2.36-.6-3.84-.93-3.82-1.01,0-.04.38,0,1.06.11.68.1,1.65.28,2.85.54,2.39.51,5.67,1.38,9.2,2.61,3.53,1.24,6.63,2.61,8.82,3.7,1.1.54,1.97,1.01,2.56,1.35.59.34.91.54.9.57Z"/>
        <path class="cls-10" d="m101.34,398.11s-.15.07-.44.15c-.35.09-.77.2-1.28.33-1.2.28-2.8.65-4.73,1.09-3.99.93-9.55,2.09-15.46,4.08-5.91,2.01-10.98,4.57-14.43,6.78-1.72,1.1-3.07,2.07-3.97,2.77-.91.69-1.41,1.09-1.43,1.06-.01-.01.1-.13.32-.34.22-.2.54-.52.99-.88.87-.75,2.19-1.77,3.9-2.92,3.41-2.3,8.51-4.93,14.46-6.96,5.96-2.01,11.54-3.11,15.55-3.95,1.95-.38,3.56-.7,4.77-.93,1.13-.21,1.75-.31,1.76-.28Z"/>
        <path class="cls-10" d="m125.41,407.25c-.14.02-.99-4.97-1.89-11.15-.9-6.18-1.52-11.2-1.38-11.23.14-.02.99,4.97,1.89,11.15.9,6.18,1.52,11.2,1.38,11.22Z"/>
        <path class="cls-10" d="m150.48,398.15c-.06.04-.9-1-2.26-2.68-1.35-1.69-3.23-4.01-5.35-6.54-2.12-2.53-4.09-4.77-5.52-6.4-1.43-1.63-2.31-2.64-2.25-2.69.03-.02.28.2.72.61.44.42,1.06,1.04,1.81,1.82,1.5,1.56,3.51,3.78,5.64,6.31,2.13,2.53,3.96,4.9,5.25,6.65.64.87,1.15,1.59,1.49,2.09.34.5.51.79.48.81Z"/>
      </g>
      <polygon class="cls-5" points="84.15 421.4 84.15 433.78 87.24 433.78 98.25 468.53 122.67 468.53 133.33 434.13 137.46 433.78 137.46 421.4 84.15 421.4"/>
      <path class="cls-10" d="m135.4,434.13c0,.14-10.78.26-24.08.26s-24.08-.12-24.08-.26,10.78-.26,24.08-.26,24.08.12,24.08.26Z"/>
      <path class="cls-10" d="m152.95,354.46s-.55.18-1.56.42c-1.1.26-2.54.61-4.29,1.03-3.61.89-8.57,2.25-13.95,4.06-5.38,1.81-10.15,3.73-13.57,5.2-1.64.72-3,1.31-4.04,1.77-.95.42-1.49.64-1.5.61-.02-.03.49-.31,1.41-.79.92-.48,2.28-1.14,3.98-1.92,3.39-1.56,8.16-3.53,13.55-5.35,5.4-1.81,10.39-3.12,14.03-3.92,1.82-.4,3.3-.7,4.33-.87,1.03-.18,1.6-.26,1.61-.23Z"/>
      <path class="cls-2" d="m127.29,453.42c0,.14-7.56.26-16.89.26s-16.89-.12-16.89-.26,7.56-.26,16.89-.26,16.89.12,16.89.26Z"/>
      <path class="cls-2" d="m128.24,450.55c0,.14-8.02.26-17.9.26s-17.9-.12-17.9-.26,8.01-.26,17.9-.26,17.9.12,17.9.26Z"/>
    </g>
  </g>
  <g id="Speech_Bubble" data-name="Speech Bubble">
    <g>
      <g>
        <path class="cls-1" d="m397.03,140.49l6.15-10.84c-2.72-4.42-4.3-9.62-4.3-15.19,0-16.02,12.99-29.01,29.01-29.01s29.01,12.99,29.01,29.01-12.99,29.01-29.01,29.01c-6.69,0-12.84-2.27-17.75-6.07h0s-13.12,3.1-13.12,3.1Z"/>
        <path class="cls-10" d="m397.03,140.49c.9-.22,4.88-1.2,13.09-3.22l-.07.21s0,0,0-.01c-.04-.06-.03-.14.02-.18.05-.04.12-.04.16,0,3.28,2.52,7.97,4.97,13.83,5.73,1.46.18,2.98.29,4.54.21.78-.05,1.58-.07,2.38-.14.8-.12,1.6-.25,2.42-.38,3.24-.65,6.56-1.89,9.64-3.82,3.09-1.92,5.94-4.52,8.22-7.71,2.28-3.19,4.01-6.96,4.82-11.06.8-4.09.73-8.48-.35-12.72-1.08-4.23-3.1-8.35-6.13-11.75-3.06-3.47-6.84-6.25-11.01-7.86-4.15-1.65-8.58-2.28-12.81-1.98-4.24.3-8.29,1.51-11.77,3.46-3.49,1.94-6.44,4.52-8.72,7.42-2.29,2.9-3.91,6.09-4.91,9.28-1,3.2-1.28,6.38-1.28,9.33.14,5.94,2.1,10.83,4.21,14.29.03.04.02.09,0,.13-3.94,6.78-5.82,10.02-6.26,10.78.43-.77,2.24-4.05,6.04-10.91v.13c-2.16-3.47-4.18-8.4-4.35-14.41-.01-2.98.25-6.21,1.26-9.46,1.01-3.24,2.64-6.49,4.95-9.43,2.31-2.95,5.3-5.59,8.85-7.56,3.54-1.99,7.66-3.23,11.97-3.54,4.31-.31,8.82.32,13.04,2,4.25,1.64,8.1,4.47,11.21,8,3.08,3.46,5.14,7.66,6.24,11.97,1.09,4.32,1.16,8.78.34,12.94-.83,4.17-2.59,8-4.92,11.24-2.33,3.24-5.24,5.88-8.38,7.82-3.14,1.95-6.51,3.2-9.8,3.84-.83.12-1.65.25-2.46.37-.81.07-1.62.09-2.41.13-1.58.08-3.13-.05-4.6-.24-5.93-.81-10.66-3.32-13.94-5.9l.19-.18s0,.01,0,.01c.04.06.03.14-.02.18-.02.01-.03.02-.05.02-8.25,1.86-12.25,2.76-13.15,2.96Z"/>
      </g>
      <g>
        <path class="cls-10" d="m420.11,113.87c0,1.38-1.12,2.51-2.51,2.51s-2.51-1.12-2.51-2.51,1.12-2.51,2.51-2.51,2.51,1.12,2.51,2.51Z"/>
        <path class="cls-10" d="m430.14,113.87c0,1.38-1.12,2.51-2.51,2.51s-2.51-1.12-2.51-2.51,1.12-2.51,2.51-2.51,2.51,1.12,2.51,2.51Z"/>
        <path class="cls-10" d="m440.15,112.61c.69,1.2.28,2.73-.92,3.43-1.2.69-2.73.28-3.43-.92-.69-1.2-.28-2.73.92-3.43,1.2-.69,2.73-.28,3.42.92Z"/>
      </g>
    </g>
  </g>
</svg>