<?xml version="1.0" encoding="UTF-8"?>
<svg xmlns="http://www.w3.org/2000/svg" viewBox="0 0 663.36 585.29">
  <defs>
    <style>
      .cls-1 {
        fill: #fff;
      }

      .cls-2 {
        fill: #fafafa;
      }

      .cls-3 {
        opacity: .6;
      }

      .cls-4 {
        fill: #f5f5f5;
      }

      .cls-5 {
        fill: #f2a341;
      }

      .cls-6 {
        fill: #455a64;
      }

      .cls-7 {
        opacity: .2;
      }

      .cls-8 {
        fill: #e0e0e0;
      }

      .cls-9 {
        fill: #e8505b;
      }

      .cls-10 {
        opacity: .4;
      }

      .cls-11 {
        fill: #eb996e;
      }

      .cls-12 {
        opacity: .3;
      }

      .cls-13 {
        fill: #273940;
      }

      .cls-14 {
        opacity: .78;
      }

      .cls-15 {
        fill: #ffbe9d;
      }

      .cls-16 {
        fill: #263238;
      }
    </style>
  </defs>
  <g id="Floor">
    <path class="cls-16" d="m652.64,558.61c0,.2-139.48.35-311.5.35s-311.53-.16-311.53-.35,139.45-.35,311.53-.35,311.5.16,311.5.35Z"/>
  </g>
  <g id="Device">
    <g>
      <g>
        <g>
          <path class="cls-16" d="m449.12,559l-188.9-.87c-22.72-.1-41.06-18.6-40.96-41.32l2-473.59c.1-22.73,18.61-41.08,41.34-40.98l188.91.87c22.72.11,41.05,18.6,40.96,41.32l-2,473.59c-.1,22.73-18.61,41.08-41.34,40.98Z"/>
          <path class="cls-2" d="m451.23,19.45l-36.63-.17c-4.91-.02-8.91,4.12-8.93,9.26l-.03,6.64c-.02,5.13-4.02,9.28-8.93,9.26l-71.39-.33c-4.91-.02-8.88-4.2-8.85-9.34l.03-6.64c.02-5.13-3.94-9.32-8.86-9.34l-12.88-.06-32.06-.15c-15.92-.07-28.88,12.78-28.95,28.7l-1.95,462.26c-.07,15.91,12.77,28.87,28.69,28.94l188.53.87c15.92.07,28.88-12.78,28.95-28.7l1.95-462.26c.07-15.91-12.77-28.87-28.69-28.94Z"/>
        </g>
        <g>
          <path class="cls-16" d="m459.79,70.35c0,.75-.61,1.35-1.36,1.35-.75,0-1.35-.61-1.35-1.36,0-.75.61-1.35,1.36-1.35.75,0,1.35.61,1.35,1.36Z"/>
          <path class="cls-16" d="m459.78,75.21c0,.75-.61,1.35-1.36,1.35-.75,0-1.35-.61-1.35-1.36,0-.75.61-1.35,1.36-1.35.75,0,1.35.61,1.35,1.36Z"/>
          <path class="cls-16" d="m459.76,80.08c0,.75-.61,1.35-1.36,1.35-.75,0-1.35-.61-1.35-1.36,0-.75.61-1.35,1.36-1.35s1.35.61,1.35,1.36Z"/>
        </g>
      </g>
      <rect class="cls-4" x="267.27" y="143.26" width="200.96" height="127.49" rx="4.3" ry="4.3"/>
      <rect class="cls-8" x="261.75" y="134.99" width="200.96" height="127.49" rx="4.3" ry="4.3"/>
      <g>
        <path class="cls-16" d="m413.97,109.1h-1.92l-.37.89h-.98l1.84-4.13h.94l1.85,4.13h-1l-.37-.89Zm-.3-.73l-.65-1.58-.66,1.58h1.31Z"/>
        <path class="cls-16" d="m415.78,105.85h1.88c1.35,0,2.28.81,2.28,2.07s-.93,2.07-2.28,2.07h-1.88v-4.13Zm1.83,3.35c.82,0,1.36-.49,1.36-1.28s-.54-1.28-1.36-1.28h-.87v2.56h.87Z"/>
        <path class="cls-16" d="m420.66,105.85h1.88c1.35,0,2.28.81,2.28,2.07s-.93,2.07-2.28,2.07h-1.88v-4.13Zm1.83,3.35c.82,0,1.36-.49,1.36-1.28s-.54-1.28-1.36-1.28h-.87v2.56h.87Z"/>
        <path class="cls-16" d="m430.98,109.99v-2.48s-1.22,2.04-1.22,2.04h-.43l-1.21-1.99v2.43h-.9v-4.13h.79l1.55,2.57,1.52-2.57h.78v4.13s-.88,0-.88,0Z"/>
        <path class="cls-16" d="m432.6,107.92c0-1.23.96-2.14,2.26-2.14s2.26.9,2.26,2.14-.96,2.14-2.26,2.14-2.26-.91-2.26-2.14Zm3.55,0c0-.79-.55-1.32-1.29-1.32s-1.29.54-1.29,1.32.55,1.32,1.29,1.32,1.29-.54,1.29-1.32Z"/>
        <path class="cls-16" d="m440.48,109.99l-.8-1.15h-.88v1.15h-.96v-4.13h1.79c1.1,0,1.79.57,1.79,1.5,0,.62-.31,1.07-.85,1.3l.93,1.33h-1.03Zm-.9-3.35h-.78v1.44h.78c.58,0,.88-.27.88-.72s-.29-.72-.88-.72Z"/>
        <path class="cls-16" d="m445.4,109.22v.77h-3.2v-4.13h3.12v.77h-2.17v.9h1.92v.74h-1.92v.96h2.25Z"/>
        <path class="cls-16" d="m448.73,108.28h-1.03v1h-.76v-1h-1.02v-.72h1.02v-1h.76v1h1.03v.72Z"/>
      </g>
      <g>
        <path class="cls-16" d="m255.12,76.17c0-2.84,2.18-4.88,5.12-4.88,1.63,0,2.99.59,3.88,1.67l-1.4,1.29c-.63-.73-1.43-1.1-2.37-1.1-1.77,0-3.02,1.24-3.02,3.02s1.25,3.02,3.02,3.02c.94,0,1.74-.38,2.37-1.12l1.4,1.29c-.89,1.09-2.25,1.68-3.89,1.68-2.93,0-5.11-2.03-5.11-4.88Z"/>
        <path class="cls-16" d="m271.8,76.74v4.14h-1.97v-.9c-.39.66-1.15,1.01-2.21,1.01-1.7,0-2.71-.94-2.71-2.2s.9-2.17,3.11-2.17h1.67c0-.9-.54-1.43-1.67-1.43-.77,0-1.56.26-2.09.67l-.75-1.47c.8-.57,1.97-.88,3.13-.88,2.21,0,3.49,1.02,3.49,3.22Zm-2.1,1.85v-.74h-1.44c-.98,0-1.29.36-1.29.85,0,.53.44.88,1.19.88.7,0,1.31-.32,1.55-.98Z"/>
        <path class="cls-16" d="m278.2,73.52v1.94c-.17-.01-.31-.03-.47-.03-1.16,0-1.93.63-1.93,2.02v3.42h-2.1v-7.25h2.01v.96c.51-.7,1.38-1.06,2.49-1.06Z"/>
        <path class="cls-16" d="m286.76,70.88v10h-2.01v-.84c-.52.63-1.29.94-2.26.94-2.05,0-3.63-1.46-3.63-3.73s1.58-3.73,3.63-3.73c.89,0,1.64.28,2.17.88v-3.52h2.1Zm-2.06,6.37c0-1.25-.81-2.01-1.85-2.01s-1.86.75-1.86,2.01.81,2.01,1.86,2.01,1.85-.75,1.85-2.01Z"/>
        <path class="cls-16" d="m288,80.21l.7-1.51c.65.42,1.63.7,2.52.7.97,0,1.33-.26,1.33-.66,0-1.19-4.38.03-4.38-2.87,0-1.38,1.24-2.35,3.36-2.35,1,0,2.1.23,2.79.63l-.7,1.5c-.71-.4-1.43-.54-2.09-.54-.94,0-1.35.3-1.35.67,0,1.24,4.38.04,4.38,2.9,0,1.35-1.25,2.3-3.42,2.3-1.23,0-2.47-.34-3.14-.78Z"/>
      </g>
      <g>
        <path class="cls-16" d="m338.71,381.33h-2.44v-1.78h7.13v1.78h-2.43v6.18h-2.25v-6.18Z"/>
        <path class="cls-16" d="m343.7,383.52c0-2.39,1.88-4.14,4.42-4.14s4.42,1.75,4.42,4.14-1.88,4.14-4.42,4.14-4.42-1.75-4.42-4.14Zm6.57,0c0-1.38-.94-2.27-2.15-2.27s-2.15.9-2.15,2.27.94,2.28,2.15,2.28,2.15-.9,2.15-2.28Z"/>
        <path class="cls-16" d="m355.31,381.33h-2.44v-1.78h7.13v1.78h-2.43v6.18h-2.25v-6.18Z"/>
        <path class="cls-16" d="m365.76,385.95h-3.37l-.63,1.55h-2.3l3.51-7.96h2.22l3.53,7.96h-2.34l-.62-1.55Zm-.66-1.66l-1.02-2.55-1.02,2.55h2.05Z"/>
        <path class="cls-16" d="m369.36,379.54h2.25v6.18h3.8v1.78h-6.05v-7.96Z"/>
      </g>
      <g>
        <path class="cls-16" d="m320.46,418.1v2.47h-1.07v-2.44c-2.1-.11-4.07-.88-5.12-1.95l.62-1.22c.99.97,2.7,1.69,4.5,1.8v-5.64c-2.36-.58-4.76-1.31-4.76-4.14,0-2.06,1.48-3.84,4.76-4.09v-2.47h1.07v2.44c1.61.06,3.22.54,4.35,1.33l-.54,1.27c-1.2-.77-2.57-1.18-3.82-1.24v5.68c2.42.58,4.97,1.26,4.97,4.14,0,2.08-1.56,3.88-4.97,4.07Zm-1.07-8.49v-5.36c-2.21.19-3.19,1.33-3.19,2.68,0,1.63,1.44,2.23,3.19,2.68Zm4.48,4.5c0-1.69-1.57-2.27-3.41-2.72v5.36c2.36-.17,3.41-1.27,3.41-2.64Z"/>
        <path class="cls-16" d="m337.33,402.99v15.01h-1.54v-13.64h-3.54v-1.37h5.08Z"/>
        <path class="cls-16" d="m352.44,413.82c0,2.66-2.25,4.31-5.83,4.31s-5.79-1.65-5.79-4.31c0-1.8,1.03-3.07,2.89-3.69-1.52-.6-2.36-1.74-2.36-3.3,0-2.44,2.08-3.97,5.25-3.97s5.3,1.52,5.3,3.97c0,1.57-.86,2.7-2.4,3.3,1.89.62,2.94,1.91,2.94,3.69Zm-1.59-.02c0-1.84-1.59-3-4.25-3s-4.22,1.16-4.22,3,1.57,3.02,4.22,3.02,4.25-1.16,4.25-3.02Zm-4.25-4.22c2.34,0,3.73-1.05,3.73-2.68s-1.48-2.72-3.73-2.72-3.71,1.03-3.71,2.7,1.37,2.7,3.71,2.7Z"/>
        <path class="cls-16" d="m354.58,410.49c0-4.78,2.51-7.63,5.98-7.63s6,2.85,6,7.63-2.53,7.63-6,7.63-5.98-2.85-5.98-7.63Zm10.4,0c0-4.01-1.8-6.22-4.42-6.22s-4.42,2.21-4.42,6.22,1.8,6.22,4.42,6.22,4.42-2.21,4.42-6.22Z"/>
        <path class="cls-16" d="m370.85,416.93c0,.37-.09.64-.3,1.24l-.9,2.96h-1.03l.73-3.11c-.45-.13-.77-.53-.77-1.09,0-.66.49-1.16,1.14-1.16s1.14.52,1.14,1.16Z"/>
        <path class="cls-16" d="m383.54,416.63v1.37h-10.53v-1.09l6.24-6.11c1.69-1.67,2.02-2.68,2.02-3.71,0-1.74-1.22-2.81-3.52-2.81-1.76,0-3.11.54-4.1,1.67l-1.09-.94c1.16-1.37,3.02-2.14,5.32-2.14,3.05,0,4.98,1.54,4.98,4.05,0,1.44-.45,2.72-2.47,4.7l-5.1,5.02h8.26Z"/>
        <path class="cls-16" d="m385.38,410.49c0-4.78,2.51-7.63,5.98-7.63s6,2.85,6,7.63-2.53,7.63-6,7.63-5.98-2.85-5.98-7.63Zm10.4,0c0-4.01-1.8-6.22-4.42-6.22s-4.42,2.21-4.42,6.22,1.8,6.22,4.42,6.22,4.42-2.21,4.42-6.22Z"/>
      </g>
      <g>
        <g>
          <rect class="cls-9" x="267.24" y="441.01" width="192.15" height="50.43" rx="16.28" ry="16.28"/>
          <g class="cls-12">
            <rect x="267.24" y="441.01" width="192.15" height="50.43" rx="16.28" ry="16.28"/>
          </g>
        </g>
        <rect class="cls-9" x="259.78" y="441.01" width="192.15" height="50.43" rx="16.28" ry="16.28"/>
        <g>
          <path class="cls-1" d="m350.08,463.46c0,2.59-1.87,4.16-4.98,4.16h-2.95v3.61h-1.7v-11.93h4.65c3.1,0,4.98,1.57,4.98,4.16Zm-1.7,0c0-1.7-1.14-2.68-3.32-2.68h-2.9v5.35h2.9c2.18,0,3.32-.97,3.32-2.68Z"/>
          <path class="cls-1" d="m359.59,468.25h-6.34l-1.31,2.98h-1.75l5.4-11.93h1.69l5.42,11.93h-1.79l-1.31-2.98Zm-.6-1.36l-2.57-5.84-2.57,5.84h5.14Z"/>
          <path class="cls-1" d="m368.31,467.11v4.12h-1.69v-4.16l-4.74-7.77h1.82l3.82,6.29,3.83-6.29h1.69l-4.74,7.8Z"/>
        </g>
      </g>
      <g>
        <path class="cls-9" d="m382.79,359.1c0-.06.96.02,2.66-.47,1.65-.5,4.18-1.81,5.75-4.82.38-.74.67-1.58.86-2.48.17-.91.19-1.87.17-2.91-.02-2.06-.03-4.3-.05-6.7-.03-4.82-.07-10.29-.11-16.34-.03-6.06-.07-12.69-.11-19.81,0-1.78-.02-3.59-.03-5.43.05-1.82-.33-3.62-1.26-5.22-.92-1.58-2.32-2.93-4.02-3.73-1.71-.89-3.61-1-5.63-.93-16.02.06-33.62.13-52.1.21-2.23.01-4.41.84-6.07,2.29-1.67,1.43-2.77,3.47-3.08,5.61-.17,1.06-.1,2.18-.11,3.3,0,1.12,0,2.23.01,3.34,0,2.22.01,4.41.02,6.59.02,8.71.04,17.12.06,25.13,0,4,.02,7.91.02,11.7-.05,1.91.12,3.7.96,5.31.77,1.6,2.01,2.95,3.48,3.85,2.96,1.99,6.6,1.27,9.87,1.4,3.3,0,6.48,0,9.51,0,12.09,0,21.88.01,28.68.02,3.36.02,5.98.03,7.8.04.87.01,1.54.02,2.03.03.46.01.69.04.69.04,0,0-.23.03-.69.04-.49.01-1.16.03-2.03.04-1.82.02-4.44.05-7.8.1-6.81.05-16.6.12-28.68.22-3.03.02-6.2.04-9.51.06-1.65,0-3.34.01-5.06.02-1.77-.02-3.58-.5-5.14-1.48-1.56-.95-2.9-2.38-3.72-4.09-.9-1.68-1.09-3.72-1.04-5.59-.02-3.79-.04-7.7-.06-11.7-.03-8.01-.07-16.41-.11-25.13,0-2.18-.02-4.38-.03-6.59,0-1.11,0-2.22-.01-3.34,0-1.11-.06-2.24.12-3.41.33-2.31,1.52-4.51,3.32-6.06,1.78-1.56,4.15-2.46,6.55-2.47,18.48-.05,36.08-.1,52.1-.15,1.95-.07,4.14.05,5.93,1.01,1.82.87,3.32,2.31,4.3,4.01.99,1.69,1.39,3.68,1.33,5.54,0,1.84,0,3.65,0,5.43,0,7.12.02,13.75.02,19.81,0,6.05,0,11.53,0,16.34,0,2.4,0,4.64,0,6.7.01,1.02-.02,2.04-.21,2.98-.22.93-.52,1.79-.92,2.55-1.66,3.08-4.28,4.37-5.96,4.83-.87.23-1.55.31-2.01.32-.46.01-.69,0-.69,0Z"/>
        <g>
          <g>
            <path class="cls-9" d="m368.11,334.97s-.17.02-.49.03c-.35,0-.82.02-1.41.04-1.26.02-3.04.05-5.23.08-4.46.04-10.62.09-17.55.16h-.14s-.02-.14-.02-.14c-.14-.93-.28-1.91-.42-2.91-1.22-8.51-2.3-16.1-3.01-21.07l.1.09c-1.98,0-3.56-.02-4.68-.02-.52,0-.93-.02-1.24-.02-.28,0-.43-.02-.43-.03,0,0,.15-.02.43-.03.31,0,.72-.02,1.24-.03,1.12-.02,2.7-.04,4.68-.08h.09s.01.09.01.09c.74,4.96,1.86,12.55,3.13,21.05.14,1,.29,1.98.42,2.91l-.16-.14c6.93-.02,13.09-.04,17.56-.05,2.19,0,3.97.02,5.23.02.59,0,1.06.02,1.41.02.32,0,.49.02.49.03Z"/>
            <path class="cls-9" d="m342.68,330s.04,0,.12-.01c.1,0,.22,0,.36-.02.34,0,.81-.02,1.41-.03,1.26-.02,3.05-.04,5.28-.08,4.53-.04,10.88-.1,18.22-.17l-.16.13c.52-3.07,1.09-6.39,1.67-9.83.3-1.77.6-3.5.88-5.16l.16.19c-8.53.03-16.05.05-21.47.07-2.68,0-4.84,0-6.36-.01-.73,0-1.3-.01-1.71-.02-.18,0-.33,0-.44-.01-.1,0-.15,0-.15-.01s.05-.01.15-.02c.12,0,.26-.01.44-.02.41,0,.99-.02,1.71-.04,1.52-.02,3.68-.05,6.36-.09,5.42-.05,12.95-.11,21.47-.18h.2s-.03.19-.03.19c-.28,1.66-.58,3.39-.88,5.16-.59,3.43-1.16,6.75-1.68,9.82l-.02.13h-.13c-7.34.02-13.68.04-18.22.05-2.24,0-4.03-.01-5.28-.02-.6,0-1.07-.01-1.41-.02-.15,0-.27,0-.36-.01-.08,0-.12,0-.12-.01Z"/>
            <path class="cls-9" d="m349.63,341.78s-.03-.22-.14-.59c-.11-.36-.37-.88-.91-1.28-.53-.4-1.39-.61-2.21-.29-.82.29-1.52,1.17-1.5,2.18,0,1.02.71,1.88,1.53,2.17.83.31,1.69.08,2.21-.32.54-.4.79-.93.9-1.29.11-.37.11-.59.14-.59.01,0,.06.22-.01.62-.07.39-.3.98-.88,1.44-.56.47-1.51.75-2.46.42-.94-.3-1.76-1.29-1.76-2.45-.02-1.16.79-2.16,1.73-2.47.94-.34,1.9-.07,2.46.39.58.46.82,1.04.9,1.43.08.4.03.62.02.62Z"/>
            <path class="cls-9" d="m365.52,341.68s-.03-.22-.14-.59c-.11-.36-.37-.88-.91-1.28-.53-.4-1.39-.61-2.21-.29-.82.29-1.52,1.17-1.5,2.18,0,1.02.71,1.88,1.53,2.17.83.31,1.69.08,2.21-.32.54-.4.79-.93.9-1.29.11-.37.11-.59.14-.59.01,0,.06.22-.01.62-.07.39-.3.98-.88,1.44-.56.47-1.51.75-2.46.42-.94-.3-1.76-1.29-1.76-2.45-.02-1.16.79-2.16,1.73-2.47.94-.34,1.9-.07,2.46.39.58.46.82,1.04.9,1.43.08.4.03.62.02.62Z"/>
            <path class="cls-9" d="m376.32,312.34c.02,3.89-3.11,7.06-7,7.09-3.89.02-7.06-3.11-7.09-7-.02-3.89,3.11-7.06,7-7.09,3.89-.02,7.06,3.11,7.09,7Z"/>
          </g>
          <path class="cls-1" d="m370.14,309.66l-.04,5.35h-1.24s.03-4.36.03-4.36h-1.07s0-1,0-1l2.31.02Z"/>
        </g>
      </g>
    </g>
  </g>
  <g id="Speech_Bubble" data-name="Speech Bubble">
    <g>
      <g>
        <g>
          <path class="cls-1" d="m451.71,9.83l-36.92-.02c-4.95,0-8.97,4.28-8.97,9.56v6.83c0,5.28-4.02,9.56-8.97,9.56l-71.96-.04c-4.95,0-8.96-4.29-8.96-9.57v-6.83c0-5.28-4.01-9.57-8.96-9.57h-12.98s-32.31-.03-32.31-.03c-16.05,0-29.06,13.26-29.07,29.64l-.09,475.45c0,16.37,12.99,29.64,29.03,29.65l190.03.11c16.05.01,29.06-13.26,29.07-29.63l.09-475.45c0-16.37-12.99-29.64-29.03-29.65Z"/>
          <path class="cls-16" d="m451.71,9.83s.33,0,.99.03c.66.06,1.66-.02,2.94.23,2.57.31,6.49,1.16,10.9,3.84,2.22,1.28,4.49,3.12,6.63,5.48,2.13,2.36,4.11,5.31,5.53,8.85,1.44,3.52,2.22,7.64,2.18,12.03,0,4.38.01,9.04.02,13.97.02,39.5.06,96.64.1,167.24.01,70.61.03,154.69.04,248.04,0,11.67,0,23.48,0,35.44v8.99c-.03,3.01-.22,6.11-1.11,9.04-.84,2.93-2.03,5.79-3.71,8.35-1.68,2.56-3.72,4.87-6.05,6.85-4.72,3.87-10.64,6.34-16.78,6.64-6.09.18-12.14.05-18.26.08-12.22,0-24.55-.01-37-.02-24.89-.01-50.22-.03-75.93-.04-12.85,0-25.8-.01-38.83-.02-6.52,0-13.05,0-19.61-.01-6.58.34-13.41-1.43-18.92-5.33-5.53-3.87-9.61-9.73-11.52-16.23-1.02-3.24-1.21-6.7-1.21-10.03,0-3.34,0-6.67,0-9.99,0-13.3,0-26.52,0-39.64,0-26.24.01-52.09.02-77.5.02-50.81.04-99.81.05-146.5.02-46.68.04-91.05.06-132.56.01-20.76.02-40.81.04-60.08,0-2.41,0-4.81,0-7.19.02-1.19.1-2.4.16-3.6.2-1.18.29-2.38.59-3.53,1.06-4.64,3.17-8.99,6.11-12.56,2.96-3.56,6.68-6.37,10.77-8.22,4.09-1.88,8.58-2.55,12.91-2.49,8.65.01,17.09.02,25.32.03,4.11,0,8.18.01,12.18.02,2,0,3.99,0,5.97,0,2-.1,4.08.46,5.72,1.63,1.64,1.17,2.91,2.86,3.55,4.76.75,1.9.57,3.96.59,5.86,0,.97,0,1.93,0,2.88,0,.96-.03,1.92.09,2.83.23,1.83.99,3.59,2.17,4.96,1.15,1.39,2.74,2.38,4.44,2.81.86.22,1.71.28,2.62.26.9,0,1.79,0,2.68,0,3.55,0,7.05,0,10.49.01,13.74.02,26.53.04,38.31.06,5.89,0,11.52.02,16.89.03,1.33-.02,2.69.06,3.96-.05,1.28-.15,2.5-.6,3.56-1.28,2.13-1.35,3.58-3.6,4.07-5.97.27-1.19.22-2.4.23-3.6,0-1.2,0-2.38,0-3.55.01-1.16-.06-2.32.15-3.46.19-1.13.57-2.21,1.1-3.18,1.05-1.95,2.75-3.42,4.64-4.18,1.91-.85,3.94-.59,5.77-.63,7.45.02,13.75.04,18.84.05,5.09.02,8.97.04,11.59.05,2.61.02,3.95.05,3.95.05,0,0-1.34.03-3.95.04-2.62,0-6.5.02-11.59.03-5.1,0-11.4.02-18.84.03-1.85.04-3.84-.2-5.67.63-1.83.74-3.48,2.18-4.49,4.07-.51.94-.87,1.99-1.05,3.08-.2,1.09-.13,2.24-.14,3.41,0,1.16,0,2.35,0,3.55,0,1.19.05,2.44-.23,3.67-.5,2.45-1.99,4.78-4.2,6.2-1.1.71-2.37,1.18-3.7,1.34-1.34.12-2.65.03-4,.06-5.37,0-11,0-16.89,0-11.77,0-24.56,0-38.31.01-3.44,0-6.93,0-10.48,0-.89,0-1.78,0-2.68,0-.89.02-1.84-.04-2.73-.27-1.8-.45-3.47-1.5-4.69-2.96-1.24-1.44-2.05-3.29-2.29-5.22-.13-.98-.09-1.94-.1-2.89,0-.96,0-1.92,0-2.89-.02-1.94.14-3.89-.57-5.68-.62-1.8-1.82-3.4-3.37-4.5-1.57-1.1-3.47-1.62-5.42-1.53h-5.97c-4.01,0-8.07,0-12.18,0-8.23,0-16.67,0-25.32,0-4.3-.05-8.66.61-12.68,2.46-4.01,1.81-7.65,4.57-10.55,8.06-2.88,3.5-4.93,7.76-5.97,12.3-.29,1.13-.38,2.3-.58,3.46-.06,1.17-.14,2.34-.16,3.53,0,2.38,0,4.78,0,7.19,0,19.27,0,39.32.01,60.08,0,41.52,0,85.88.01,132.56,0,46.69,0,95.69,0,146.5,0,25.4,0,51.26,0,77.5,0,13.12,0,26.33,0,39.64,0,3.33,0,6.66,0,9.99,0,3.32.18,6.63,1.18,9.79,1.85,6.32,5.82,12.01,11.2,15.78,5.38,3.79,11.93,5.52,18.45,5.18,6.56,0,13.1,0,19.61.01,13.03,0,25.98.02,38.83.02,25.71.02,51.04.03,75.93.05,12.45,0,24.78.02,37,.03,6.1-.04,12.21.1,18.21-.08,5.97-.3,11.73-2.7,16.33-6.46,2.27-1.92,4.26-4.18,5.89-6.67,1.64-2.49,2.8-5.28,3.61-8.13.87-2.86,1.05-5.85,1.09-8.83,0-3,0-6,0-8.99,0-11.95,0-23.77.01-35.44.05-93.35.1-177.43.14-248.04.07-70.6.12-127.74.16-167.24,0-4.94.01-9.6.02-13.97.05-4.37-.71-8.44-2.12-11.94-1.39-3.51-3.35-6.45-5.46-8.8-2.12-2.35-4.36-4.19-6.56-5.48-4.37-2.69-8.26-3.56-10.82-3.9-1.28-.26-2.28-.2-2.93-.27-.66-.04-.99-.07-.99-.07Z"/>
        </g>
        <g>
          <path class="cls-16" d="m458.35,66.26c0,.13-4.87.27-10.88.32-6.01.05-10.88-.01-10.88-.14s4.87-.27,10.88-.32c6.01-.05,10.88.01,10.88.14Z"/>
          <path class="cls-16" d="m458.4,71.84c0,.13-4.87.27-10.88.32-6.01.05-10.88-.01-10.88-.14,0-.13,4.87-.27,10.88-.32,6.01-.05,10.88.01,10.88.14Z"/>
          <path class="cls-16" d="m458.45,77.42c0,.13-4.87.27-10.88.32-6.01.05-10.88-.01-10.88-.14,0-.13,4.87-.27,10.88-.32,6.01-.05,10.88.01,10.88.14Z"/>
        </g>
        <path class="cls-16" d="m260.47,83.96s.16-.02.45-.03c.36-.01.77-.03,1.26-.04,1.19-.03,2.74-.07,4.65-.11l-.13.13c-.02-1.03-.03-2.16-.05-3.37,0-.63-.05-1.22,0-1.94.13-.72.77-1.36,1.56-1.43.75-.01,1.41-.05,2.22-.01.84.1,1.55.91,1.52,1.8.02,1.57.04,3.22.06,4.92l-.22-.21c1.88-.02,3.84-.04,5.86-.06l-.22.23c-.02-2.36-.04-4.81-.07-7.31,0-.62-.01-1.25-.02-1.86,0-.57-.35-.96-.82-1.39-.87-.86-1.72-1.7-2.56-2.53-.84-.83-1.66-1.64-2.47-2.44-.4-.4-.8-.79-1.2-1.18-.41-.4-.74-.81-1.21-.91-.46-.12-.97-.03-1.34.26-.36.3-.73.73-1.09,1.07-.72.73-1.42,1.44-2.1,2.12-1.32,1.38-2.7,2.63-3.7,3.82-.42.66-.26,1.46-.3,2.19,0,.73,0,1.42,0,2.07,0,1.27-.01,2.38-.02,3.33,0,.85-.02,1.55-.02,2.13,0,.49-.02.76-.03.77-.01.01-.02-.23-.04-.71-.02-.57-.04-1.26-.06-2.1-.02-.96-.05-2.08-.08-3.36-.01-.66-.03-1.37-.04-2.11,0-.38-.01-.76-.02-1.15,0-.42.1-.85.32-1.23,1.08-1.33,2.38-2.51,3.71-3.92.67-.69,1.37-1.41,2.09-2.14.38-.37.68-.74,1.13-1.12.47-.36,1.11-.49,1.7-.34.62.14,1.03.65,1.41,1.01.4.39.8.78,1.2,1.18.81.8,1.64,1.61,2.48,2.43.84.83,1.7,1.67,2.57,2.52.21.22.45.4.65.71.19.29.3.64.31.99,0,.62.01,1.24.02,1.87.02,2.5.04,4.95.06,7.31v.23s-.22,0-.22,0c-2.02.01-3.98.03-5.86.04h-.21s0-.21,0-.21c0-1.7-.02-3.35-.03-4.92.02-.71-.53-1.33-1.18-1.42-.67-.04-1.47-.01-2.13,0-.63.05-1.16.56-1.26,1.14-.06.59-.01,1.28-.03,1.88,0,1.22,0,2.34,0,3.37v.13s-.13,0-.13,0c-1.94-.01-3.52-.02-4.72-.03-.48,0-.88-.02-1.23-.02-.28,0-.41-.01-.41-.02Z"/>
      </g>
      <g>
        <circle class="cls-5" cx="356.63" cy="491.45" r="33.66"/>
        <path class="cls-1" d="m341.89,495.98l6-1.41c.74-.17,1.26-.84,1.26-1.6v-1.24s-.26-2.1,1.72-2.23c1.42-.09,10.45,0,10.45,0,0,0,2.38-.05,2.33,1.83v1.8c0,.62.41,1.17,1,1.34l6.51,1.97c.69.21,1.43-.14,1.7-.81l.83-2.01c.15-.37.23-.76.21-1.16-.04-.79-.34-2.01-1.12-3.01-1.29-1.65-7.37-5.57-18.98-5-11.05.54-13.46,5.19-14.09,6.31-.39.69-.51,2.39-.21,3.1.11.27.3.71.48,1.15.31.74,1.11,1.15,1.89.97Z"/>
      </g>
    </g>
    <g>
      <path class="cls-6" d="m299.08,125.52l-7.59,29.99h-8.26l-4.81-18.55-4.67,18.55h-8.26l-7.59-29.99h7.81l4.13,20.12,5.04-20.12h7.47l4.77,20.12,4.35-20.12h7.61Z"/>
      <path class="cls-6" d="m313.96,156.11c-4.27,0-7.54-1.02-9.82-3.06-2.28-2.04-3.41-4.95-3.41-8.72s1.06-6.64,3.18-8.84c2.12-2.2,5.09-3.3,8.9-3.3,3.46,0,6.07.93,7.81,2.8,1.75,1.87,2.62,4.54,2.62,8.02v2.54h-15.45c.07,1.05.29,1.92.67,2.63.38.7.87,1.27,1.49,1.68.6.42,1.31.71,2.11.9.81.18,1.68.27,2.64.27.82,0,1.62-.09,2.42-.27.79-.18,1.52-.42,2.18-.71.58-.25,1.11-.53,1.6-.83.49-.29.89-.56,1.2-.79h.75v5.82c-.58.23-1.1.44-1.58.63s-1.13.39-1.96.59c-.77.2-1.55.36-2.37.47-.81.11-1.8.17-2.97.17Zm2.34-14.82c-.04-1.49-.39-2.62-1.04-3.4s-1.65-1.17-2.99-1.17-2.44.41-3.21,1.23c-.77.82-1.2,1.93-1.28,3.34h8.52Z"/>
      <path class="cls-6" d="m333.92,155.51h-7.05v-31.34h7.05v31.34Z"/>
      <path class="cls-6" d="m350.41,156.11c-1.87,0-3.58-.23-5.13-.7s-2.9-1.19-4.04-2.18c-1.13-.98-2.01-2.21-2.64-3.7-.63-1.48-.95-3.23-.95-5.25,0-2.16.34-4,1.03-5.52s1.61-2.77,2.78-3.75c1.13-.94,2.45-1.63,3.98-2.08,1.52-.45,3.11-.67,4.76-.67,1.25,0,2.5.14,3.75.43,1.25.29,2.5.75,3.77,1.38v6.04h-.91c-.28-.27-.63-.56-1.04-.89-.41-.32-.86-.62-1.34-.89-.51-.28-1.09-.52-1.73-.72-.64-.19-1.36-.29-2.16-.29-1.8,0-3.19.63-4.18,1.88-.99,1.26-1.48,2.94-1.48,5.06,0,2.27.53,3.96,1.58,5.08,1.05,1.11,2.45,1.67,4.2,1.67.89,0,1.66-.1,2.34-.3.67-.2,1.25-.44,1.73-.73.47-.28.87-.57,1.21-.88.34-.3.62-.57.87-.82h.91v6.04c-.4.17-.87.38-1.4.6-.53.23-1.07.42-1.62.56-.68.19-1.33.33-1.92.43-.6.1-1.39.15-2.37.15Z"/>
      <path class="cls-6" d="m382.78,144.21c0,3.72-1.02,6.65-3.05,8.79s-4.91,3.21-8.63,3.21-6.56-1.07-8.61-3.21c-2.05-2.14-3.07-5.07-3.07-8.79s1.02-6.7,3.07-8.83c2.05-2.13,4.92-3.19,8.61-3.19s6.58,1.07,8.62,3.21,3.06,5.08,3.06,8.81Zm-7.23.04c0-1.34-.11-2.46-.33-3.35-.22-.89-.53-1.61-.92-2.15-.42-.56-.89-.96-1.41-1.18-.52-.22-1.12-.33-1.79-.33-.63,0-1.2.1-1.71.29-.51.19-.98.57-1.41,1.12-.4.52-.72,1.24-.97,2.16-.24.91-.36,2.06-.36,3.44s.11,2.5.34,3.35c.23.85.52,1.53.89,2.04.38.52.85.91,1.41,1.15.56.24,1.19.36,1.87.36.56,0,1.14-.12,1.72-.36.58-.24,1.05-.6,1.4-1.09.42-.58.73-1.27.95-2.08.21-.81.32-1.94.32-3.37Z"/>
      <path class="cls-6" d="m413.55,155.51v-11.3c0-1.11-.02-2.05-.06-2.82-.04-.77-.16-1.39-.36-1.87-.2-.48-.51-.84-.94-1.06-.42-.22-1.02-.33-1.78-.33-.54,0-1.07.12-1.59.35s-1.09.57-1.71,1v16.03h-7.09v-11.3c0-1.1-.02-2.04-.07-2.81-.05-.77-.17-1.4-.37-1.88s-.51-.84-.94-1.06c-.42-.22-1.01-.33-1.76-.33-.58,0-1.14.13-1.69.4s-1.09.58-1.61.95v16.03h-7.05v-22.62h7.05v2.5c1.16-.98,2.24-1.75,3.26-2.3,1.02-.55,2.17-.83,3.44-.83,1.38,0,2.6.33,3.65.99,1.05.66,1.85,1.64,2.4,2.94,1.36-1.26,2.63-2.23,3.84-2.91,1.2-.68,2.42-1.02,3.66-1.02,1.05,0,1.99.17,2.82.5.83.34,1.54.84,2.11,1.51.63.73,1.1,1.59,1.42,2.59.32,1,.47,2.31.47,3.92v14.72h-7.09Z"/>
      <path class="cls-6" d="m437.44,156.11c-4.27,0-7.54-1.02-9.82-3.06-2.28-2.04-3.41-4.95-3.41-8.72s1.06-6.64,3.18-8.84c2.12-2.2,5.09-3.3,8.9-3.3,3.46,0,6.07.93,7.81,2.8,1.75,1.87,2.62,4.54,2.62,8.02v2.54h-15.45c.07,1.05.29,1.92.67,2.63.38.7.87,1.27,1.49,1.68.6.42,1.31.71,2.11.9.81.18,1.68.27,2.64.27.82,0,1.62-.09,2.42-.27.79-.18,1.52-.42,2.18-.71.58-.25,1.11-.53,1.6-.83.49-.29.89-.56,1.2-.79h.75v5.82c-.58.23-1.1.44-1.58.63s-1.13.39-1.96.59c-.77.2-1.55.36-2.37.47-.81.11-1.8.17-2.97.17Zm2.34-14.82c-.04-1.49-.39-2.62-1.04-3.4s-1.65-1.17-2.99-1.17-2.44.41-3.21,1.23c-.77.82-1.2,1.93-1.28,3.34h8.52Z"/>
    </g>
  </g>
  <g id="Character">
    <g>
      <g>
        <path class="cls-15" d="m57.68,176.85s-.01.13.02.3c.24,1.43,2.03,7.49,2.84,7.54.91.06,2.86-1,2.78-1.84-.08-.84-2.47-7.55-2.47-7.55,0,0-.45-1.04-2.33-.79-1.17.15-.83,2.34-.83,2.34Z"/>
        <path class="cls-15" d="m60.72,173.65s-.01.13.02.3c.24,1.43,2.03,7.49,2.84,7.54.91.06,2.86-1,2.78-1.84-.08-.84-2.47-7.55-2.47-7.55,0,0-.45-1.04-2.33-.79-1.17.15-.83,2.34-.83,2.34Z"/>
        <path class="cls-15" d="m63.98,171.56s-.01.13.02.3c.24,1.43,2.03,7.49,2.84,7.54.91.06,2.86-.99,2.78-1.84-.08-.84-2.47-7.55-2.47-7.55,0,0-.45-1.04-2.33-.79-1.17.15-.83,2.34-.83,2.34Z"/>
        <path class="cls-15" d="m67.25,169.55s-.01.13.02.3c.24,1.43,2.03,7.49,2.84,7.54.91.06,2.86-.99,2.78-1.84-.08-.84-2.47-7.55-2.47-7.55,0,0-.45-1.04-2.33-.79-1.17.15-.83,2.34-.83,2.34Z"/>
        <path class="cls-11" d="m62.85,181.07c-.11.02-.6-1.27-1.11-2.88-.51-1.61-.83-2.93-.72-2.96.11-.02.6,1.27,1.11,2.88.51,1.61.83,2.93.72,2.96Z"/>
        <path class="cls-11" d="m66.44,180.09c-.1.03-.78-1.81-1.51-4.11-.73-2.31-1.24-4.2-1.13-4.23.1-.03.78,1.81,1.51,4.11.73,2.3,1.24,4.2,1.13,4.23Z"/>
        <g class="cls-14">
          <path class="cls-11" d="m70,178.78c-.1.03-.78-1.81-1.51-4.11-.73-2.31-1.24-4.2-1.13-4.23.1-.03.78,1.81,1.51,4.11.73,2.3,1.24,4.2,1.13,4.23Z"/>
        </g>
      </g>
      <g>
        <path class="cls-15" d="m60.93,188.48c-.1-.36-3.29-12.63-3.29-12.63l15.5-.02c.58.96,1.63,10.82,1.63,10.82l-.81,3.24s-10.67,4.75-10.95,4.77c-.28.02-2.08-6.18-2.08-6.18Z"/>
        <path class="cls-15" d="m71.48,187.13l1.87-4.87c.82-2.13.78-4.49-.1-6.6l-.67-1.61-11.79,3.97s2.23,3.97,5.3,2.26l-2.64,4.05,8.04,2.79Z"/>
        <path class="cls-11" d="m64.37,184.87c.07,0,.03-.59.32-1.55.29-.93,1-2.29,2.47-3.17l1.12-.67-1.29.22c-.92.16-1.92.33-2.98.51h.06c-1.21-.04-2.59-.6-3.11-1.85-.04-.09-.08-.21-.09-.28l-.2.34c3.38-.98,6.42-1.91,8.58-2.71,1.08-.39,1.94-.74,2.53-1,.59-.26.9-.42.89-.46-.03-.08-1.36.39-3.55,1.07-2.18.7-5.22,1.56-8.61,2.54l-.26.08.06.26c.03.15.08.26.13.38.32.74.9,1.33,1.57,1.67.67.36,1.39.47,2.05.51h.03s.03,0,.03,0c1.05-.2,2.05-.4,2.97-.58l-.17-.45c-1.59,1.01-2.27,2.51-2.49,3.51-.23,1.03-.09,1.63-.06,1.62Z"/>
        <path class="cls-11" d="m62.17,179.59c-.11,0,.02.63-.24,1.42-.14.37-.5.8-.97.76-.49-.02-.95-.45-1.23-1.04-.56-1.27-1.15-2.43-1.48-3.26-.34-.85-.5-1.4-.58-1.38-.07.01-.06.6.2,1.51.25.92.77,2.08,1.35,3.4.31.67.95,1.32,1.74,1.31.83-.02,1.25-.7,1.37-1.17.12-.5.05-.9,0-1.16-.06-.26-.12-.4-.15-.39Z"/>
      </g>
      <g>
        <path class="cls-16" d="m155.6,279.89c-.1.04-.75-1.9-2.26-4.8-.78-1.42-1.82-3.1-3.45-4.47-.81-.68-1.78-1.25-2.87-1.64-1.09-.39-2.28-.62-3.51-.77-2.46-.31-4.92-.47-6.97-1.37-2.07-.87-3.49-2.43-4.33-3.87-.84-1.45-1.13-2.81-1.23-3.73-.03-.46-.04-.82-.02-1.07.02-.24.03-.37.05-.37.05,0,.03.51.17,1.41.15.89.49,2.19,1.34,3.56.85,1.36,2.23,2.81,4.2,3.61,1.96.84,4.36.98,6.85,1.29,1.25.16,2.48.39,3.62.81,1.14.41,2.16,1.03,3,1.75,1.69,1.46,2.72,3.21,3.47,4.67.74,1.48,1.2,2.74,1.51,3.6.31.87.45,1.36.42,1.37Z"/>
        <path class="cls-16" d="m112.85,219.67c6.72-3.33,15.56-1.65,20.59,3.91,2.53,2.8,4.19,6.44,7.28,8.6,3.8,2.65,8.81,2.45,13.44,2.59,4.63.14,9.86,1.09,12.38,4.98,1.18,1.82,1.56,4.01,2.19,6.08.63,2.07,1.65,4.21,3.56,5.22,1.42.75,3.09.76,4.68.97,1.59.2,3.31.72,4.17,2.07-2.15,6.26-5.46,12.11-9.72,17.17-1.08-.56-2.17-1.11-3.25-1.67.08,1.29.17,2.57.25,3.86-2.95,1.64-5.61,3.81-7.81,6.36-2.01-2.44-4.03-4.89-6.04-7.33-1.76-2.14-3.61-4.34-6.12-5.51-2.33-1.08-4.98-1.14-7.53-1.43-2.55-.29-5.25-.93-6.99-2.81-1.42-1.53-2-3.66-3.23-5.34-1.68-2.28-4.62-3.57-7.44-3.26"/>
        <g>
          <g>
            <path class="cls-5" d="m125.06,252.67c-.46,1.95.99,3.94,2.81,4.79,1.82.85,3.9.84,5.9.82s4.09,0,5.89.89c2.99,1.49,4.4,4.98,7.02,7.05,2.42,1.91,5.88,2.42,8.75,1.28,2.87-1.14,5.04-3.88,5.49-6.94-3.01,2.42-7.7,2.45-10.74.07-2.42-1.9-3.81-5.06-6.58-6.4-2.74-1.32-5.97-.47-9-.21-3.03.26-6.76-.6-7.66-3.51l-.66.11-1.22,2.06Z"/>
            <g class="cls-12">
              <path d="m125.78,255.73c-.16.23,2.09,1.97,2.09,1.73,0,0,1.52-.85,1.76-1.7.33-1.18.11-1.57-.44-2.67,0,0-1.89-.86-2.21-2.73h-.68l-.51,5.37"/>
            </g>
          </g>
          <path class="cls-2" d="m131.87,253.94c.07,0,.06,1-.24,2.18-.28,1.18-.57,2.11-.62,2.1-.06-.01.14-.98.42-2.15.29-1.17.39-2.13.44-2.14Z"/>
          <path class="cls-2" d="m141.26,253.58c.05.05-.94.93-1.74,2.31-.81,1.38-1.01,2.7-1.08,2.68-.02,0,0-.33.12-.85.12-.52.37-1.22.78-1.93.41-.71.89-1.28,1.27-1.65.38-.38.64-.57.66-.56Z"/>
          <path class="cls-2" d="m149.51,260.41s-.17.31-.55.74c-.37.43-.94.98-1.64,1.5-.7.52-1.39.9-1.91,1.13-.52.23-.86.33-.87.31-.03-.06,1.28-.58,2.65-1.61,1.38-1.02,2.26-2.11,2.31-2.07Z"/>
          <path class="cls-2" d="m155.93,267.18c-.06,0,.06-1.08.06-2.41,0-1.33-.03-2.42.03-2.42.05,0,.17,1.08.17,2.42,0,1.35-.22,2.42-.27,2.41Z"/>
        </g>
        <g>
          <polygon class="cls-15" points="187.98 439.64 224.67 425.84 219.56 409.62 179.86 418.81 187.98 439.64"/>
          <g>
            <path class="cls-5" d="m219.88,427.79l1.08-.32s12.93,16.12,16.47,15.26l-11.22-36.38-11.95,4.23c4.17,4.64,6.2,10.21,5.62,17.22Z"/>
            <g class="cls-3">
              <path class="cls-1" d="m219.26,413.07c-.02-.76.62-1.49,1.38-1.55.76-.06,1.51.59,1.55,1.35.04.76-.71,1.66-1.47,1.63-.76-.03-1.6-.84-1.45-1.59"/>
            </g>
            <g class="cls-3">
              <path class="cls-1" d="m226.21,406.35l-2.88,1.02,11.8,34.5s1.2,1.4,2.29.87l-11.22-36.38Z"/>
            </g>
            <path class="cls-16" d="m221.1,427.57c.18-.06-.02-.97.28-2.02.27-1.06.9-1.75.78-1.89-.08-.15-1.07.44-1.41,1.72-.35,1.27.19,2.28.34,2.19Z"/>
            <path class="cls-16" d="m223.86,430.9c.18-.01.25-.88.81-1.71.54-.85,1.31-1.25,1.24-1.43-.02-.18-1.1.02-1.79,1.07-.69,1.05-.44,2.11-.27,2.07Z"/>
            <path class="cls-16" d="m229.09,431.66c-.01-.17-.98-.15-1.81.61-.84.75-.96,1.71-.79,1.74.18.06.53-.65,1.23-1.26.68-.63,1.41-.91,1.37-1.09Z"/>
          </g>
        </g>
        <g>
          <polygon class="cls-15" points="103.29 511.42 114 549.13 130.59 545.39 124.73 505.06 103.29 511.42"/>
          <g>
            <path class="cls-5" d="m112.45,544.2l.23,1.11s-17.14,11.54-16.58,15.14l37.19-8.15-3.22-12.26c-4.97,3.77-10.69,5.33-17.63,4.17Z"/>
            <g class="cls-3">
              <path class="cls-1" d="m127.18,544.81c.76.04,1.44.74,1.43,1.5,0,.76-.71,1.46-1.48,1.43-.76-.03-1.6-.84-1.51-1.6.09-.76.97-1.53,1.7-1.32"/>
            </g>
            <g class="cls-3">
              <path class="cls-1" d="m133.3,552.29l-.77-2.95-35.36,8.9s-1.5,1.08-1.05,2.21l37.19-8.15Z"/>
            </g>
            <path class="cls-16" d="m112.58,545.44c.05.18.97.06,1.99.45,1.03.36,1.66,1.05,1.82.94.16-.07-.35-1.1-1.59-1.55-1.24-.46-2.29,0-2.22.16Z"/>
            <path class="cls-16" d="m109.03,547.91c0,.19.85.32,1.64.95.8.61,1.14,1.41,1.32,1.36.18,0,.07-1.1-.92-1.87-.98-.78-2.07-.62-2.04-.44Z"/>
            <path class="cls-16" d="m107.84,553.06c.17,0,.23-.96-.46-1.85-.68-.9-1.62-1.1-1.66-.93-.07.17.6.58,1.15,1.33.57.73.79,1.48.97,1.46Z"/>
          </g>
        </g>
        <path class="cls-16" d="m84,350.89s-1.36,71.99,5.69,120.66l16.24,52.78,22-4.44s-8.44-54.61-9.61-76.89c-1.17-22.29-.36-103.98-.36-103.98l-33.96,11.88Z"/>
        <path class="cls-16" d="m98.6,344.42l21.34,82.33c4.37,16.85,21.84,26.71,38.52,21.75l48.73-14.49-7.02-20.99-45.59,7.64-6.11-47.52s-8.49-35.48-19.75-35.47c-2.45,0-30.1,6.75-30.1,6.75Z"/>
        <path class="cls-15" d="m73.8,189.14l-.09,4.47s-1.81,34.56-1.7,39.73,17.44,34.82,17.44,34.82l-10.58,17.34-23.91-43c-.98-1.76-1.37-3.78-1.12-5.78l5.71-45.95.15-1.21"/>
        <path class="cls-5" d="m72.18,234.39l18.62,24.63c3.5,4.64,9.54,7.27,14.91,9.49h0c13.35.65,29.55-1.11,36.21,9.74,1.11,1.82,1.41,4.02.79,6.06-2.88,9.45-12.4,40.92-12.76,44.93,0,0,4.15,4.28,3.22,6.92-.93,2.64-4.45,1.51-4.45,1.51l-43.9,12.98s-1.98-1.02-1.79-2.46c.17-1.36,1.6-5.39,3.15-9.49,2.52-6.67,2.88-13.97.91-20.83-.82-2.87-1.58-5.87-1.97-8.31l-1.11-15.66c-6.1-10.14-19.75-24.95-26.75-45.68l14.92-13.83Z"/>
        <g>
          <path class="cls-15" d="m128.51,237.02c1.07-8.53-5.1-16.33-13.77-17.15-8.17-.78-15.42,5.3-16.65,13.41-1.07,7.11-2,14.29-1.96,16.89.1,7.86,4.7,10.92,6.56,11.84.43.21,1.6.45,2.07.51h0s.05.03.04.06l-1.75,9.02c-.79,5.91,2.51,11.18,8.41,12.05,5.92.86,10.55-3.68,11.46-9.59l5.58-37.04Z"/>
          <path class="cls-16" d="m99.45,237.87c.13.18,1.17-.37,2.5-.18,1.33.18,2.21,1,2.38.86.08-.06-.03-.38-.41-.75-.37-.37-1.04-.77-1.87-.89-.83-.12-1.57.09-2.02.34-.46.25-.64.53-.57.61Z"/>
          <path class="cls-16" d="m111.29,240.44c.13.18,1.17-.37,2.5-.18,1.33.18,2.21,1,2.38.86.08-.06-.03-.38-.41-.75-.37-.37-1.04-.77-1.87-.89-.83-.12-1.57.09-2.02.34-.45.25-.64.53-.57.61Z"/>
          <path class="cls-16" d="m106.68,246.73c.02-.07-.79-.34-2.1-.7-.33-.08-.65-.2-.67-.44-.04-.26.15-.6.37-.97.44-.78.9-1.59,1.38-2.44,1.93-3.48,3.38-6.36,3.24-6.44-.14-.08-1.82,2.68-3.75,6.16-.47.86-.92,1.68-1.34,2.46-.18.37-.47.77-.37,1.31.05.27.28.49.49.58.21.1.4.13.57.16,1.34.27,2.17.4,2.19.32Z"/>
          <path class="cls-11" d="m104.82,262.53s5.08,1.17,12.07-1.76c0,0-3.02,6.5-12.54,4.19l.47-2.43Z"/>
          <path class="cls-9" d="m106.78,250.02c.57-.56,1.46-.79,2.28-.58.57.15,1.11.51,1.39,1.03.28.52.26,1.2-.13,1.6-.43.45-1.2.46-1.81.19-.61-.27-1.09-.77-1.55-1.26-.13-.14-.26-.28-.32-.45-.07-.17-.06-.38.07-.5"/>
          <path class="cls-16" d="m110.47,248.22c-.21-.04-.43,1.4-1.81,2.24-1.38.85-2.9.46-2.94.66-.03.09.3.33.95.44.63.11,1.6.05,2.44-.47.85-.52,1.29-1.31,1.43-1.9.14-.6.03-.98-.07-.98Z"/>
          <path class="cls-16" d="m112.2,236.11c.08.38,1.43.4,2.97.82,1.54.38,2.73,1.03,2.99.73.11-.14-.05-.51-.51-.94-.45-.42-1.21-.87-2.13-1.11-.92-.24-1.8-.22-2.4-.07-.61.15-.94.39-.91.57Z"/>
          <path class="cls-16" d="m100.79,233.77c.19.34,1.15.16,2.26.3,1.11.11,2.01.5,2.27.22.12-.14.01-.46-.35-.81-.36-.34-1-.67-1.76-.76-.76-.09-1.46.09-1.89.35-.43.25-.61.55-.53.71Z"/>
        </g>
        <path class="cls-5" d="m100.5,321.68c-6.13.03-11.09-4.96-11.05-11.09.04-6.3,2.06-13.71,2.06-13.71,0,0,17.03,3.77,17,3.77-.02,0,.02.02.03,0l4.5-7.44s9.49-18.42,18.46-19.63c8.1-1.09,12.6,4.72,10.89,12.78-1.71,8.06-13.7,23.72-23.97,30.07-5.77,3.57-12.25,5.21-17.91,5.24Z"/>
        <path class="cls-16" d="m132.81,302.62s-.11.22-.37.61c-.25.39-.65.96-1.16,1.68-1.04,1.43-2.6,3.48-4.79,5.8-2.19,2.3-5.02,4.88-8.64,7.05-3.6,2.18-8.04,3.9-12.92,4.33-2.44.2-4.84.06-7.1-.43-2.25-.49-4.38-1.39-6.01-2.8-1.64-1.41-2.64-3.28-3.17-5.09-.53-1.82-.64-3.6-.55-5.2.23-3.2,1.07-5.67,1.62-7.35.28-.84.52-1.49.69-1.92.17-.44.26-.66.28-.66.02,0-.05.24-.18.69-.15.5-.35,1.14-.59,1.95-.48,1.69-1.27,4.16-1.44,7.31-.07,1.56.06,3.3.59,5.05.53,1.74,1.5,3.52,3.07,4.85,1.56,1.34,3.61,2.2,5.8,2.67,2.2.47,4.56.61,6.94.41,4.78-.43,9.16-2.1,12.72-4.23,3.59-2.12,6.42-4.65,8.62-6.9,2.2-2.26,3.8-4.27,4.89-5.66.51-.67.92-1.21,1.24-1.62.28-.37.44-.56.45-.55Z"/>
        <path class="cls-16" d="m134.58,303.12c.12.06-.58,1.38-2.05,2.42-1.46,1.05-2.94,1.29-2.96,1.16-.04-.15,1.28-.59,2.65-1.58,1.38-.97,2.23-2.09,2.36-2Z"/>
        <path class="cls-16" d="m107.13,307.62c-.14,0-.19-1.54.15-3.4.33-1.86.91-3.28,1.05-3.23.14.04-.21,1.51-.53,3.33-.33,1.82-.51,3.31-.66,3.3Z"/>
        <path class="cls-16" d="m110.21,308.79c-.11.08-1.22-1.54-1.82-3.85-.62-2.31-.44-4.26-.31-4.25.16,0,.22,1.89.82,4.11.58,2.23,1.45,3.91,1.32,3.98Z"/>
        <path class="cls-16" d="m119.35,283.27c.06.04-.51,1.06-1.49,2.68-.97,1.62-2.35,3.84-3.89,6.27-1.55,2.43-2.97,4.62-4.02,6.19-1.05,1.57-1.73,2.52-1.8,2.49-.06-.04.51-1.06,1.48-2.68.97-1.62,2.35-3.84,3.9-6.28,1.55-2.44,2.97-4.63,4.02-6.2,1.05-1.57,1.73-2.52,1.79-2.48Z"/>
        <path class="cls-16" d="m86.84,313.33s-.2-.36-.48-1.04c-.29-.68-.63-1.7-1-2.97-.73-2.54-1.39-6.18-1.38-10.23.02-4.05.71-7.68,1.46-10.22.37-1.27.73-2.28,1.02-2.96.28-.68.46-1.05.49-1.04.09.03-.51,1.55-1.15,4.1-.65,2.54-1.27,6.12-1.29,10.12,0,4,.58,7.59,1.22,10.13.63,2.55,1.21,4.07,1.12,4.1Z"/>
        <path class="cls-16" d="m121.18,326.6s-.24.38-.74,1.02c-.49.64-1.28,1.52-2.3,2.55-1.02,1.04-2.32,2.18-3.84,3.36-1.54,1.15-3.31,2.32-5.26,3.37-1.97,1.04-3.92,1.86-5.74,2.49-1.82.61-3.5,1.06-4.93,1.32-1.43.28-2.59.44-3.4.49-.81.06-1.26.08-1.26.04-.01-.1,1.78-.25,4.58-.89,1.41-.31,3.05-.79,4.85-1.41,1.78-.65,3.71-1.48,5.65-2.5,1.93-1.04,3.68-2.18,5.22-3.3,1.52-1.14,2.83-2.24,3.87-3.24,2.09-1.98,3.22-3.37,3.29-3.31Z"/>
        <path class="cls-16" d="m127.51,323.03c.13-.06.9,1.4,1.72,3.25.82,1.85,1.38,3.4,1.24,3.46-.13.06-.9-1.4-1.72-3.25-.82-1.85-1.37-3.4-1.24-3.46Z"/>
        <path class="cls-6" d="m118.78,422.27c-.14.03-3.46-13.51-7.42-30.23-3.96-16.74-7.06-30.32-6.92-30.36.14-.03,3.46,13.5,7.42,30.24,3.96,16.73,7.05,30.32,6.91,30.35Z"/>
        <path class="cls-6" d="m138.35,344.43s-.18.26-.6.65c-.41.39-1.06.9-1.92,1.44-1.7,1.09-4.39,2.2-7.52,2.34-3.13.14-5.91-.73-7.71-1.66-.91-.46-1.59-.92-2.04-1.26-.45-.35-.67-.57-.65-.59.05-.08,1.04.7,2.85,1.52,1.8.83,4.5,1.61,7.52,1.47,3.03-.14,5.65-1.16,7.36-2.14,1.73-.98,2.64-1.85,2.7-1.77Z"/>
        <path class="cls-6" d="m107.46,376.41s-.39-.22-.95-.81c-.55-.59-1.24-1.55-1.84-2.87-.61-1.31-1.12-2.94-1.68-4.74-.56-1.81-1.17-3.79-1.81-5.86-1.27-4.16-2.4-7.94-3.19-10.68-.36-1.29-.67-2.38-.91-3.25-.2-.77-.3-1.2-.27-1.21s.2.4.46,1.15c.29.86.64,1.93,1.07,3.2.88,2.71,2.06,6.47,3.33,10.63.63,2.08,1.23,4.05,1.77,5.87.54,1.81,1,3.43,1.56,4.73,1.07,2.64,2.52,3.77,2.45,3.83Z"/>
        <path class="cls-6" d="m101.22,348.47c-.07-.01.19-.49.92-.45.33.02.77.17,1.04.61.28.43.18,1.08-.18,1.48-.34.42-.96.62-1.43.41-.47-.2-.69-.61-.76-.93-.15-.71.28-1.04.3-.98.07.04-.15.38.05.87.09.23.3.5.58.59.27.1.63-.02.87-.3.24-.28.3-.65.16-.91-.14-.26-.43-.42-.67-.48-.52-.12-.82.15-.87.09Z"/>
        <path class="cls-6" d="m103.97,352.98s.07-.14.32-.18c.23-.05.63,0,.95.33.35.31.46,1,.11,1.51-.29.54-1.09.84-1.74.58-.67-.22-1.09-.84-1.17-1.4-.09-.56.01-1.09.29-1.46.26-.35.63-.51.89-.47.27.04.33.2.31.21-.02.04-.13-.04-.31,0-.17.02-.42.18-.59.47-.33.52-.24,1.83.75,2.16.47.17.94,0,1.18-.35.25-.34.22-.75.02-1-.2-.26-.48-.36-.67-.37-.19-.02-.31.02-.33-.02Z"/>
        <path class="cls-6" d="m88.55,351.44c.05-.02.4.73.59,2.04.2,1.3.17,3.18-.43,5.12-.61,1.94-1.64,3.51-2.55,4.47-.9.97-1.61,1.39-1.64,1.35-.06-.07.56-.59,1.37-1.59.81-.99,1.74-2.52,2.33-4.38.57-1.87.66-3.66.56-4.93-.1-1.28-.31-2.06-.23-2.08Z"/>
        <path class="cls-6" d="m155.87,419.97c.1.1-1.61,1.98-3.81,4.18-2.21,2.21-4.08,3.92-4.18,3.82-.1-.1,1.61-1.98,3.81-4.19,2.21-2.21,4.08-3.92,4.18-3.82Z"/>
        <path class="cls-6" d="m152.51,429.2c-.14-.03.18-1.85.72-4.07.54-2.21,1.09-3.98,1.23-3.94.14.03-.18,1.85-.72,4.07-.54,2.21-1.09,3.98-1.23,3.94Z"/>
        <g class="cls-12">
          <path d="m91.96,318.66c.69,2.86,2.82,5.27,5.42,6.64,2.61,1.37,5.65,1.78,8.58,1.51,7.38-.68,14.18-5.82,16.85-12.73-4.46,3.1-9.39,5.96-14.73,7.29-5.35,1.33-11.6.61-16.24-2.37"/>
        </g>
        <g>
          <g>
            <g>
              <path class="cls-15" d="m121.86,273.55l3.32-3.04c.27-.25.6-.52.97-.46.5.08.7.68.72,1.18.05,1.34-.55,2.68-1.58,3.54"/>
              <path class="cls-11" d="m125.28,274.78c-.06-.06.43-.47.86-1.34.21-.43.4-.98.45-1.61.02-.31.04-.65-.04-.95-.08-.31-.25-.56-.48-.57-.23-.03-.51.2-.77.44-.26.23-.52.46-.78.69-.46.39-.9.77-1.34,1.15-.77.64-1.28,1.02-1.32.96-.05-.05.37-.52,1.08-1.23.41-.4.83-.81,1.27-1.23.25-.24.5-.47.76-.72.26-.23.58-.59,1.15-.58.27.01.52.18.66.37.15.19.22.4.27.6.1.41.06.78.02,1.13-.09.7-.33,1.29-.61,1.73-.56.9-1.16,1.21-1.18,1.17Z"/>
            </g>
            <path class="cls-15" d="m106.91,276.69l-14.81,20.42,16.42,3.55,6.71-18.72,11.59,1.47,7.37-2.32-6.32-5.69-9.25-2.71c-4.35-1.28-9.04.32-11.7,4Z"/>
            <path class="cls-11" d="m127.87,275.41s-.17-.02-.48-.1c-.36-.1-.81-.23-1.34-.38-1.16-.34-2.84-.84-4.93-1.4-1.04-.27-2.19-.59-3.43-.78-1.24-.18-2.59-.22-3.98,0-1.38.22-2.79.73-4.02,1.63-1.22.9-2.23,2.15-3.15,3.51-3.5,5.6-7.04,10.47-9.79,13.82-1.37,1.68-2.52,3.01-3.33,3.91-.4.45-.73.79-.95,1.02-.22.23-.35.34-.36.33-.03-.03.39-.55,1.16-1.49.76-.94,1.87-2.3,3.2-4,2.67-3.41,6.13-8.26,9.64-13.88.93-1.38,1.97-2.68,3.28-3.63,1.3-.95,2.8-1.47,4.24-1.69,1.45-.22,2.84-.16,4.12.04,1.28.21,2.42.55,3.46.85,2.08.61,3.74,1.17,4.89,1.57.52.19.96.35,1.31.48.3.12.45.18.45.2Z"/>
            <path class="cls-11" d="m115.61,280.54c.13.06-.3,1.24-.74,2.7-.45,1.46-.75,2.68-.9,2.65-.14-.02-.06-1.3.4-2.81.46-1.51,1.12-2.61,1.24-2.55Z"/>
            <path class="cls-11" d="m127.52,283.24c0,.14-2.84.33-6.33-.08-1.75-.19-3.29-.59-4.37-.36-1.09.18-1.59.74-1.65.68-.06-.02.38-.73,1.57-1.04,1.19-.34,2.8.02,4.51.21,3.45.41,6.27.44,6.27.59Z"/>
          </g>
          <g>
            <path class="cls-15" d="m129.58,270.04s-1.03,1.41,0,2.82c1.03,1.41,1.79,1.51,1.79,1.51l-.38,1.6,2.35.85,1.13-3.39-4.89-3.39Z"/>
            <path class="cls-11" d="m129.58,270.04c0-.05.49.24,1.38.8.88.56,2.16,1.38,3.65,2.39l.15.1-.06.17c-.35,1.06-.72,2.2-1.11,3.39l-.08.25-.25-.09h0c-.81-.3-1.59-.58-2.34-.86l-.21-.08.05-.22c.14-.55.27-1.08.39-1.59l.2.29c-.52-.14-.8-.4-1.09-.66-.28-.26-.51-.54-.71-.81-.43-.54-.6-1.19-.56-1.69.11-1.01.58-1.43.6-1.4.06.03-.3.5-.32,1.41,0,.45.17.97.58,1.44.2.25.43.5.69.73.25.22.59.45.86.51l.25.06-.05.23c-.12.51-.24,1.05-.36,1.6l-.16-.29c.75.27,1.54.55,2.35.84h0s-.34.16-.34.16c.4-1.19.79-2.32,1.15-3.38l.09.27c-1.38-.98-2.55-1.85-3.39-2.49-.84-.64-1.35-1.04-1.36-1.09Z"/>
          </g>
        </g>
        <g>
          <g>
            <path class="cls-16" d="m137.92,284.72s2.82.94,3.13,1.41c.31.47-1.57,57.68-1.57,57.68l-4.86-5.64,3.29-53.45Z"/>
            <polygon class="cls-6" points="131.18 281.89 114.49 333.46 134.62 338.16 137.92 284.72 134.94 285.19 131.18 281.89"/>
            <path class="cls-2" d="m138.7,336.64s-.44-.45-1.11-1.3-1.62-2.09-2.74-3.58l.14.09c-1.88-.35-4.04-.74-6.34-1.17-3.44-.65-6.54-1.27-8.79-1.75-1.12-.24-2.03-.44-2.65-.59-.62-.15-.97-.25-.96-.29s.36,0,1,.09,1.55.23,2.68.42c2.26.38,5.38.94,8.82,1.6,2.3.45,4.46.87,6.33,1.24l.09.02.05.07c1.08,1.52,1.98,2.79,2.59,3.69.61.9.94,1.43.9,1.46Z"/>
            <path class="cls-2" d="m138.7,324.03s-.35-.35-.88-1.04-1.26-1.69-2.12-2.89l.14.09c-1.65-.3-3.54-.65-5.57-1.02-2.88-.55-5.48-1.07-7.35-1.47-1.88-.4-3.03-.69-3.02-.76.01-.07,1.19.09,3.09.4,1.89.31,4.5.78,7.38,1.32,2.02.4,3.9.77,5.55,1.09l.09.02.05.07c.83,1.24,1.51,2.27,1.97,3,.46.73.71,1.16.67,1.19Z"/>
            <path class="cls-2" d="m138.52,310.03c-.07.05-.91-.97-2.16-2.6l.13.08c-1.32-.22-2.97-.51-4.74-.85-2.22-.42-4.23-.83-5.68-1.16-1.45-.32-2.34-.56-2.32-.63.01-.07.93.04,2.39.27,1.47.23,3.48.58,5.71,1.01,1.78.34,3.41.67,4.72.95l.09.02.04.06c1.17,1.68,1.89,2.8,1.82,2.85Z"/>
            <path class="cls-2" d="m138.67,297.66c-.07.05-.68-.67-1.6-1.84l.13.08c-1.06-.16-2.41-.4-3.88-.68-3.46-.66-6.24-1.3-6.21-1.44.03-.14,2.85.28,6.31.93,1.47.28,2.82.56,3.86.79l.08.02.04.06c.84,1.23,1.34,2.03,1.27,2.08Z"/>
            <path class="cls-16" d="m134.62,338.16c-.03.14-4.57-.8-10.12-2.1-5.56-1.3-10.04-2.46-10.01-2.6.03-.14,4.56.8,10.12,2.1,5.56,1.3,10.04,2.46,10,2.6Z"/>
            <polygon class="cls-6" points="120.57 340.46 114.49 333.46 134.62 338.16 139.48 343.8 120.57 340.46"/>
          </g>
          <g>
            <polygon class="cls-5" points="159.23 340.98 138.7 343.8 138.7 284.99 141.05 286.13 159.23 340.98"/>
            <g class="cls-10">
              <polygon points="159.23 340.98 138.7 343.8 138.7 284.99 141.05 286.13 159.23 340.98"/>
            </g>
            <path class="cls-2" d="m152.49,323.67s-.45.13-1.26.38c-.8.24-1.97.65-3.23,1.44-1.25.79-2.64,2.01-3.43,3.81-.79,1.75-1.02,4.11.08,6.06.27.46.66.86,1.1,1.06.43.21.93.1,1.2-.26.27-.35.34-.88.28-1.35-.06-.47-.24-.94-.47-1.36-.94-1.69-2.74-2.53-4.18-2.48-1.48.04-2.5.86-3.05,1.45-.57.61-.78,1.04-.82,1.02-.02,0,.03-.12.12-.32.11-.2.27-.49.54-.83.52-.65,1.57-1.59,3.19-1.68,1.57-.11,3.55.76,4.61,2.61.49.88.92,2.14.17,3.25-.39.55-1.22.71-1.81.42-.59-.27-1.02-.74-1.34-1.27-1.21-2.16-.92-4.68-.06-6.52.87-1.9,2.36-3.15,3.67-3.93,1.34-.78,2.54-1.14,3.37-1.32.84-.18,1.31-.21,1.31-.18Z"/>
            <path class="cls-2" d="m148.62,314.93s-.41.49-1.31.93c-.89.44-2.27.81-3.81.73-1.54-.09-2.87-.62-3.7-1.16-.84-.54-1.23-1.03-1.19-1.07.06-.07.53.32,1.37.75.84.44,2.1.87,3.55.96,1.45.08,2.75-.21,3.63-.55.89-.34,1.4-.66,1.45-.59Z"/>
            <path class="cls-2" d="m143.26,300.66c.07.07-.7.66-1.32,2.01-.29.66-.56,1.54-.52,2.47.03.46.2.93.57,1.17.35.24.9.19,1.3-.08.41-.26.58-.75.54-1.23-.05-.47-.29-.91-.61-1.2-.69-.59-1.63-.65-2.32-.51-.71.15-1.24.45-1.61.65-.36.21-.56.33-.59.3-.02-.03.14-.21.47-.47.34-.26.87-.63,1.64-.84.75-.2,1.83-.21,2.72.5.43.36.74.9.81,1.52.08.6-.17,1.34-.75,1.71-.55.37-1.31.46-1.88.08-.56-.38-.74-1.04-.76-1.56-.02-1.08.31-1.97.66-2.66.36-.69.79-1.17,1.11-1.46.32-.29.53-.41.55-.39Z"/>
          </g>
          <g>
            <g>
              <polygon class="cls-5" points="177.57 329.38 159.23 339.73 138.7 288.01 144.81 284.72 177.57 329.38"/>
              <polygon class="cls-5" points="181.17 324.53 177.57 329.38 144.81 284.72 148.97 281.89 181.17 324.53"/>
              <path class="cls-2" d="m150.57,293.22s.07-.11.26-.24c.19-.14.52-.29.97-.37.89-.16,2.26.04,3.65.87,1.38.83,2.73,2.35,3.42,4.39.34,1.01.55,2.15.37,3.33-.16,1.18-.93,2.37-2.1,2.92-1.15.57-2.47.63-3.6.25-1.14-.37-2.06-1.09-2.77-1.89-1.4-1.62-2.06-3.55-2.07-5.16-.01-1.64.65-2.87,1.23-3.54.29-.34.56-.57.76-.7.19-.13.31-.18.32-.17.03.04-.39.3-.91,1-.5.68-1.07,1.87-1.02,3.41.05,1.52.72,3.34,2.06,4.85.67.74,1.54,1.4,2.57,1.73,1.01.33,2.2.27,3.21-.23,1.03-.49,1.68-1.48,1.83-2.54.17-1.06,0-2.14-.32-3.1-.63-1.93-1.88-3.4-3.16-4.23-1.29-.83-2.58-1.07-3.42-.99-.86.09-1.23.46-1.26.41Z"/>
              <path class="cls-2" d="m179.87,322.74s-.08.27-.43.64c-.34.36-.95.81-1.83,1.04-.86.24-2.02.23-3.12-.26-1.11-.47-2.13-1.36-2.9-2.49-.77-1.13-1.25-2.37-1.4-3.55-.16-1.18.05-2.28.41-3.1.36-.83.85-1.39,1.23-1.71.38-.32.64-.43.65-.41.07.07-.93.65-1.54,2.25-.29.78-.45,1.8-.28,2.89.16,1.1.63,2.26,1.35,3.32.72,1.06,1.67,1.89,2.67,2.34,1,.47,2.03.51,2.84.34,1.68-.36,2.28-1.41,2.34-1.32Z"/>
              <path class="cls-2" d="m154.14,316.08s.07-.11.26-.24c.19-.14.52-.29.97-.37.89-.16,2.26.04,3.65.87,1.38.83,2.73,2.35,3.42,4.39.34,1.01.55,2.15.37,3.33-.16,1.18-.93,2.37-2.1,2.92-1.15.57-2.47.63-3.6.25-1.14-.37-2.06-1.09-2.77-1.89-1.4-1.62-2.06-3.55-2.07-5.16-.01-1.64.65-2.87,1.23-3.54.29-.34.56-.57.76-.7.19-.13.31-.18.32-.17.03.04-.39.3-.91,1-.5.68-1.07,1.87-1.02,3.41.05,1.52.72,3.34,2.06,4.85.67.74,1.54,1.4,2.57,1.73,1.01.33,2.2.27,3.21-.23,1.03-.49,1.68-1.48,1.83-2.54.17-1.06,0-2.14-.32-3.1-.63-1.93-1.88-3.4-3.16-4.23-1.29-.83-2.58-1.07-3.42-.99-.86.09-1.23.46-1.26.41Z"/>
            </g>
            <g class="cls-7">
              <polygon points="181.17 324.53 177.57 329.38 144.81 284.72 148.97 281.89 181.17 324.53"/>
            </g>
          </g>
          <g>
            <path class="cls-6" d="m129.4,275.31c.48-.49,1.26-.58,1.92-.39s1.22.61,1.77,1.02c3.93,2.93,7.87,5.87,11.8,8.8-.97.53-1.94,1.07-2.91,1.6-1.37-2.7-3.74-4.88-6.54-6.04"/>
            <path class="cls-16" d="m134.7,285.39c-.31-2.46-1.6-4.78-3.51-6.36-1.1-.9-2.42-1.59-3.26-2.73-.27-.37-.49-.86-.29-1.27.18-.36.63-.52,1.03-.47.4.05.76.26,1.11.47,2.01,1.2,4.04,2.42,5.63,4.13,1.59,1.71,2.69,4.02,2.43,6.34"/>
          </g>
        </g>
        <path class="cls-16" d="m106.05,220.56c-4.39,1.14-9.92,5.65-7.86,12.14,5.38-1.32,10.24-5.21,14.6-8.62.94,4.95,1.56,7.47,4.09,12.09.97,1.77,9.16,8.94,10.32,9.5s1.76-4.9.68-6.97c0,0-5.13-22.47-21.84-18.14Z"/>
        <path class="cls-5" d="m106.05,220.56c5.04.59,11.11,3.71,14.5,7.85,3.4,4.14,6.31,11.05,6.8,16.24,4.82-6.07,2.96-17.12-1.97-22s-13.24-5.43-19.33-2.1"/>
        <path class="cls-16" d="m159.74,230.87s.13.16.24.53c.1.36.17.95-.02,1.66-.19.7-.62,1.54-1.43,2.21-.8.68-1.91,1.17-3.15,1.48-1.25.31-2.63.57-4.14.72-1.51.14-3.15.14-4.84-.24-1.67-.38-3.39-1.14-4.76-2.47-1.39-1.33-2.19-3.18-2.78-5.03-.6-1.87-1.03-3.72-1.78-5.36-.73-1.65-1.87-3-3.22-3.96-2.72-1.93-5.83-2.44-8.34-2.48-2.53-.05-4.58.27-5.99.44-.66.09-1.2.16-1.63.22-.37.05-.57.06-.57.04s.19-.07.56-.15c.37-.08.91-.19,1.61-.31,1.41-.24,3.46-.61,6.03-.61,2.54,0,5.75.48,8.61,2.46,1.42.98,2.65,2.42,3.4,4.13.79,1.7,1.22,3.58,1.81,5.41.58,1.83,1.35,3.58,2.64,4.83,1.28,1.25,2.91,1.99,4.51,2.36,3.25.72,6.33.14,8.78-.37,1.22-.29,2.29-.73,3.06-1.35.77-.61,1.21-1.39,1.42-2.04.41-1.37-.1-2.14-.02-2.14Z"/>
        <path class="cls-16" d="m120.94,238.3c0,3.42.7,6.96,2.74,9.71,2.04,2.75,5.62,4.52,8.95,3.73-.87-.96-1.75-1.93-2.62-2.89,1.99,1.08,4.59.92,6.43-.4-6.16-1.54-11.6-5.75-14.62-11.33"/>
        <path class="cls-16" d="m123.56,227.45c.05-.03.61.75,1.31,2.14.7,1.38,1.51,3.38,2.07,5.69.55,2.31.73,4.46.73,6.01,0,1.55-.14,2.5-.2,2.5-.17,0,.08-3.84-1.03-8.39-1.07-4.56-3.03-7.87-2.88-7.95Z"/>
        <path class="cls-16" d="m127.66,229.39c.07-.01.27.78.46,2.09.19,1.31.36,3.13.35,5.15,0,2.02-.18,3.85-.38,5.15-.2,1.31-.41,2.1-.47,2.09-.16-.02.33-3.24.34-7.24.02-4-.45-7.22-.29-7.24Z"/>
        <path class="cls-2" d="m126.88,224.59s-.43.11-1.13.26c-.7.14-1.66.37-2.7.67-1.04.31-1.97.64-2.63.9-.67.26-1.07.43-1.09.4-.01-.02.38-.24,1.03-.53.65-.29,1.58-.65,2.63-.96,1.05-.31,2.02-.51,2.73-.62.71-.11,1.15-.14,1.16-.11Z"/>
        <path class="cls-2" d="m121.52,220s-.48.09-1.26.24c-.78.14-1.84.39-2.98.78-1.14.39-2.13.85-2.83,1.22-.7.36-1.12.62-1.14.59,0-.01.09-.09.27-.22.18-.13.45-.3.8-.5.69-.4,1.68-.89,2.83-1.29,1.15-.4,2.23-.62,3.02-.73.39-.05.71-.09.94-.1.22-.01.35-.01.35,0Z"/>
        <path class="cls-2" d="m112.5,218.55c.02.06-1.17.46-2.59,1.03-.71.29-1.35.57-1.79.8-.45.23-.7.4-.72.38-.05-.06.99-.82,2.44-1.37.72-.29,1.38-.51,1.87-.66.49-.14.79-.21.8-.18Z"/>
        <path class="cls-2" d="m125.53,232.5c.01.05-.46.22-1.06.29-.61.07-1.1,0-1.1-.05,0-.06.49-.09,1.08-.16.59-.06,1.07-.14,1.09-.08Z"/>
        <path class="cls-2" d="m127.92,234.18c0,.06-.32.11-.71.13-.39.01-.71-.02-.72-.08s.32-.11.71-.13c.39-.01.71.02.72.08Z"/>
        <path class="cls-2" d="m129.88,232.15c0,.06-.41.06-.9.01-.49-.05-.88-.14-.88-.19s.41-.06.9-.01c.49.05.88.14.88.19Z"/>
        <g class="cls-12">
          <path d="m127.45,244.28c.18-4.08-.43-8.19-1.79-12.04-.17-.49-.35-1.06-.07-1.5.38-.58,1.35-.43,1.79.11s.49,1.29.52,1.98c0-.45.25-.89.64-1.11,1.71,3.85,1.3,8.57-1.04,12.06"/>
        </g>
      </g>
      <g>
        <g>
          <g>
            <rect class="cls-16" x="55.37" y="171.57" width="30.24" height="14.75" rx="2.24" ry="2.24" transform="translate(-75.74 54.02) rotate(-27.99)"/>
            <path class="cls-2" d="m85.46,176.79l-.94-1.76c-.13-.24-.43-.32-.67-.19l-.32.17c-.25.13-.55.05-.67-.19l-1.82-3.43c-.13-.24-.03-.53.22-.66l.32-.17c.25-.13.34-.43.22-.66l-.33-.62-.82-1.54c-.41-.76-1.36-1.05-2.12-.65l-22.2,11.81c-.76.41-1.05,1.36-.65,2.12l4.81,9.06c.41.76,1.36,1.05,2.12.65l22.2-11.81c.76-.41,1.05-1.36.65-2.12Z"/>
          </g>
          <g>
            <path class="cls-16" d="m83.24,178.51s-.08,0-.1-.03c-.02-.04,0-.08.03-.1.04-.02.08,0,.1.03.02.04,0,.08-.03.1Z"/>
            <path class="cls-16" d="m83.01,178.64s-.08,0-.1-.03c-.02-.04,0-.08.03-.1.04-.02.08,0,.1.03.02.04,0,.08-.03.1Z"/>
            <path class="cls-16" d="m82.78,178.76s-.08,0-.1-.03c-.02-.04,0-.08.03-.1.04-.02.08,0,.1.03.02.04,0,.08-.03.1Z"/>
          </g>
        </g>
        <g>
          <path class="cls-16" d="m80.21,177.32l-.05-.09h-.05s-.03-.04-.03-.04l.25-.02.02.05-.15.2-.03-.05.03-.04Zm.03-.03l.06-.07h-.09s.03.07.03.07Z"/>
          <path class="cls-16" d="m80.41,177.32l.05.09c.03.06.02.13-.04.16-.06.03-.12,0-.16-.06l-.05-.09.2-.11Zm-.11.17s.06.05.1.03c.04-.02.05-.06.03-.1l-.02-.04-.12.07.02.04Z"/>
          <path class="cls-16" d="m80.54,177.55l.05.09c.03.06.02.13-.04.16-.06.03-.12,0-.16-.06l-.05-.09.2-.11Zm-.11.17s.06.05.1.03c.04-.02.05-.06.03-.1l-.02-.04-.12.07.02.04Z"/>
          <path class="cls-16" d="m80.6,178.15l.12-.06h-.13s-.01-.03-.01-.03l.06-.11-.12.06-.02-.04.2-.11.02.04-.08.14h.16s.02.04.02.04l-.2.11-.02-.04Z"/>
          <path class="cls-16" d="m80.74,178.18c.06-.03.13,0,.16.05.03.06.01.13-.04.16-.06.03-.13,0-.16-.05-.03-.06-.01-.13.04-.16Zm.09.17s.05-.06.03-.1c-.02-.04-.06-.05-.1-.03-.04.02-.05.06-.03.1.02.04.06.05.1.03Z"/>
          <path class="cls-16" d="m80.85,178.61l.03-.07h0s-.02-.04-.02-.04l-.06.03-.02-.05.2-.11.05.09c.03.05.02.1-.03.12-.03.02-.06.01-.08,0l-.04.08-.03-.05Zm.14-.13l-.02-.04-.07.04.02.04s.04.04.06.02c.02-.01.03-.03.01-.06Z"/>
          <path class="cls-16" d="m81.01,178.83l-.04.02-.08-.15.2-.11.08.15-.04.02-.06-.1-.04.02.05.09-.04.02-.05-.09-.05.02.06.11Z"/>
          <path class="cls-16" d="m81.14,178.96l-.03-.05-.05.03-.02-.04.05-.03-.03-.05.03-.02.03.05.05-.03.02.04-.05.03.03.05-.03.02Z"/>
        </g>
        <g>
          <path class="cls-16" d="m77.69,168.86c.14-.07.29-.02.37.12.04.08.05.16.02.23l-.1-.03s.02-.1,0-.14c-.05-.08-.14-.11-.22-.07-.09.05-.11.14-.07.22.02.05.06.07.11.08l-.03.1c-.08-.01-.14-.06-.18-.14-.08-.14-.03-.3.1-.37Z"/>
          <path class="cls-16" d="m78.1,169.67l-.2.11-.05-.09.04-.02s-.08-.03-.11-.08c-.04-.08-.02-.15.04-.19.06-.03.13-.01.18.09l.04.08s.05-.06.03-.12c-.02-.04-.05-.07-.09-.08l.05-.07s.09.07.12.13c.06.11.04.19-.06.25Zm-.14-.05l.04-.02-.04-.07s-.05-.05-.07-.04c-.03.01-.03.04-.01.08.02.03.05.05.09.05Z"/>
          <path class="cls-16" d="m78.41,169.89l-.09.05s0-.02-.01-.02c-.03-.06-.08-.08-.15-.04l-.16.09-.05-.1.35-.19.05.1-.05.02s.09.04.12.09Z"/>
          <path class="cls-16" d="m78.76,170.24l-.48.26-.05-.1.04-.02s-.08-.04-.1-.08c-.05-.1-.02-.21.09-.27.11-.06.22-.02.27.08.02.04.03.09.01.13l.17-.09.05.1Zm-.36.07c.06-.03.08-.09.05-.14-.03-.05-.08-.07-.14-.04-.06.03-.08.09-.05.14.03.05.08.07.14.04Z"/>
          <path class="cls-16" d="m78.35,170.54h.09s0,.09.03.13c.02.05.05.06.07.05.06-.03-.11-.21.02-.28.07-.04.14,0,.2.1.03.05.04.11.04.15h-.09s-.01-.08-.03-.11c-.02-.05-.05-.06-.07-.05-.06.03.11.21-.03.28-.06.03-.14,0-.2-.1-.03-.06-.05-.13-.04-.17Z"/>
        </g>
        <g>
          <path class="cls-16" d="m65.22,180.72l-.06-.12.09-.05.18.34-.09.05-.06-.12-.3.16-.06-.11.3-.16Z"/>
          <path class="cls-16" d="m65.25,181.02c.11-.06.25-.02.31.11.07.12.03.26-.08.32s-.25.02-.31-.11c-.07-.12-.03-.26.08-.32Zm.17.31c.07-.04.08-.1.05-.16-.03-.06-.1-.08-.16-.04-.07.04-.08.1-.05.16.03.06.1.08.16.04Z"/>
          <path class="cls-16" d="m65.65,181.52l-.06-.12.09-.05.18.34-.09.05-.06-.12-.3.16-.06-.11.3-.16Z"/>
          <path class="cls-16" d="m65.7,182.14l-.09-.16h-.09s-.06-.1-.06-.1l.47-.04.06.11-.29.37-.06-.11.06-.07Zm.06-.07l.1-.11-.15.02.05.1Z"/>
          <path class="cls-16" d="m66.1,182.14l.06.11-.3.16.1.18-.09.05-.16-.29.38-.2Z"/>
        </g>
        <g>
          <path class="cls-16" d="m62.99,180.79l-.12.06-.03-.05.12-.06c-.05-.1-.06-.22-.04-.3h.07c-.02.07-.01.17.03.26l.27-.15c-.03-.13-.06-.26.08-.33.1-.05.22-.03.32.12l.12-.06.03.05-.12.06c.04.08.06.17.05.24h-.07c0-.07,0-.15-.04-.21l-.27.15c.03.13.07.27-.07.34-.1.05-.23.02-.32-.13Zm.38-.27l.26-.14c-.07-.1-.15-.12-.21-.08-.08.04-.07.13-.05.22Zm-.1.33c.08-.04.07-.13.04-.23l-.26.14c.07.11.15.13.21.1Z"/>
          <path class="cls-16" d="m64.15,181.21l-.72.39-.04-.07.65-.35-.09-.17.07-.04.13.24Z"/>
          <path class="cls-16" d="m64.02,182.22c-.13.07-.26,0-.36-.17-.09-.17-.07-.32.06-.39.09-.05.17-.03.25.04-.01-.09.02-.16.1-.2.12-.06.24,0,.33.15s.06.29-.05.36c-.07.04-.15.03-.22-.03.02.11-.02.19-.1.24Zm-.04-.08c.09-.05.1-.15.03-.28-.07-.13-.16-.17-.25-.12-.09.05-.1.15-.04.28.07.13.16.17.25.13Zm.09-.31c.06.11.15.15.22.11.08-.04.09-.14.03-.25-.06-.11-.14-.15-.22-.11-.08.04-.09.14-.03.25Z"/>
          <path class="cls-16" d="m64.24,182.23c.23-.12.43-.08.52.09.09.17.02.36-.21.48-.23.12-.43.08-.52-.09-.09-.17-.02-.36.21-.48Zm.27.5c.19-.1.25-.25.18-.37-.07-.13-.22-.15-.41-.05-.19.1-.25.25-.18.37.07.13.22.15.41.05Z"/>
          <path class="cls-16" d="m64.35,183.18s-.03.01-.07.02l-.16.03-.03-.05.17-.05s0-.05.03-.07c.03-.02.07,0,.08.02.02.03,0,.07-.03.08Z"/>
          <path class="cls-16" d="m64.69,183.78l-.07.04-.27-.5.05-.03.45.14c.12.04.18.03.23,0,.08-.04.1-.13.04-.24-.05-.08-.11-.14-.19-.15l.02-.08c.1.02.18.09.24.2.08.15.05.28-.07.34-.07.04-.14.05-.29,0l-.37-.12.21.4Z"/>
          <path class="cls-16" d="m65.03,183.71c.23-.12.43-.08.52.09.09.17.02.36-.21.48s-.43.08-.52-.09c-.09-.17-.02-.36.21-.48Zm.27.5c.19-.1.25-.25.18-.37-.07-.13-.22-.15-.41-.05s-.25.25-.18.37c.07.13.22.15.41.05Z"/>
        </g>
        <g>
          <g>
            <rect class="cls-13" x="56.56" y="182.71" width="10.45" height="2.74" rx="1.26" ry="1.26" transform="translate(194.68 42.51) rotate(61.74)"/>
            <g class="cls-12">
              <rect x="56.56" y="182.71" width="10.45" height="2.74" rx="1.26" ry="1.26" transform="translate(194.68 42.51) rotate(61.74)"/>
            </g>
          </g>
          <rect class="cls-5" x="56.37" y="182.36" width="10.45" height="2.74" rx="1.26" ry="1.26" transform="translate(194.27 42.49) rotate(61.74)"/>
          <g>
            <path class="cls-1" d="m61.58,183.38c-.12.07-.25.02-.33-.13l-.08-.14-.17.09-.04-.08.57-.31.12.22c.08.15.05.28-.07.35Zm-.04-.08c.08-.04.1-.12.04-.23l-.07-.14-.26.14.07.14c.06.1.13.13.21.09Z"/>
            <path class="cls-1" d="m61.6,183.96l-.16-.3h-.18s-.05-.07-.05-.07l.71-.05.04.08-.43.57-.05-.09.11-.14Zm.05-.06l.21-.27-.35.03.13.25Z"/>
            <path class="cls-1" d="m61.88,184.35l-.2.11-.04-.08.2-.11.25-.43.05.09-.2.34.4.02.04.08-.5-.03Z"/>
          </g>
        </g>
        <g>
          <path class="cls-13" d="m67.4,182.22s.02.05.09.12c.06.07.19.16.37.17.09,0,.19,0,.29-.06.1-.05.2-.11.32-.17.23-.12.49-.27.78-.42.29-.16.6-.33.94-.51.08-.05.17-.09.26-.14.09-.04.16-.11.22-.19.11-.16.13-.4.03-.58-.41-.76-.87-1.6-1.34-2.48-.11-.21-.37-.33-.6-.27-.06.01-.11.04-.16.06-.05.03-.11.06-.16.09-.11.06-.21.11-.31.17-.41.22-.81.44-1.2.65-.19.1-.38.2-.56.3-.09.05-.17.1-.23.18-.06.08-.1.17-.11.26-.01.09,0,.19.03.27.03.08.08.16.12.24.08.16.17.31.24.45.31.58.56,1.04.73,1.37.08.16.15.29.2.37.02.04.04.07.05.1.01.02.02.03.02.03,0,0,0-.01-.02-.03-.01-.02-.03-.05-.05-.1-.05-.09-.12-.21-.2-.37-.18-.32-.43-.79-.75-1.36-.08-.14-.16-.29-.25-.45-.04-.08-.09-.16-.13-.25-.03-.09-.05-.19-.03-.29.01-.1.05-.19.12-.28.06-.08.15-.14.24-.19.18-.1.37-.2.56-.3.38-.21.78-.42,1.19-.65.1-.06.21-.11.31-.17.05-.03.11-.06.16-.09.05-.03.11-.06.17-.07.25-.06.53.06.65.3.48.88.93,1.72,1.34,2.48.11.2.09.45-.03.62-.06.09-.14.16-.23.2-.09.05-.17.09-.26.14-.34.18-.65.35-.94.51-.29.15-.55.3-.78.42-.12.06-.22.12-.32.17-.1.05-.21.06-.3.06-.19-.02-.31-.11-.37-.18-.06-.07-.08-.12-.08-.12Z"/>
          <g>
            <g>
              <path class="cls-13" d="m68.2,180.94s0,0-.01-.02c0-.02-.02-.04-.04-.07-.03-.06-.08-.14-.14-.25-.12-.21-.28-.51-.46-.84h0s0-.01,0-.01c.04-.03.08-.06.13-.1.38-.28.71-.52.93-.69h0c-.05-.09-.09-.16-.12-.22-.01-.03-.02-.05-.03-.06,0-.01-.01-.02,0-.02,0,0,0,0,.01.02,0,.01.02.03.03.06.03.05.07.13.12.22h0s0,0,0,0c-.22.16-.55.41-.93.69-.04.03-.09.06-.13.1h0c.18.32.34.61.45.83.06.11.1.19.13.25.01.03.03.05.04.07,0,.02.01.02.01.02Z"/>
              <path class="cls-13" d="m67.79,179.59s0,0,0,0c0,0,0,.01.01.02,0,.02.02.04.04.07.03.06.08.14.14.25.12.22.28.52.48.87h-.01c.16-.06.33-.12.51-.18.09-.03.18-.06.27-.09h0c-.22-.4-.42-.76-.56-1.01-.07-.13-.12-.23-.16-.31-.02-.04-.03-.06-.04-.08,0,0,0-.02-.01-.02,0,0,0,0,0,0,0,0,0,0,0,0,0,0,0,.01.01.02.01.02.03.05.05.08.04.07.1.17.17.3.14.26.34.62.56,1.02h0s-.01.01-.01.01c-.09.03-.18.06-.27.09-.18.06-.35.12-.51.17h0s0,0,0,0c-.19-.35-.35-.65-.47-.87-.06-.11-.1-.19-.14-.25-.01-.03-.03-.05-.04-.07,0,0,0-.01,0-.02,0,0,0,0,0,0Z"/>
              <path class="cls-13" d="m67.4,180.23s0,0,.02-.02c.01-.01.03-.04.04-.08,0-.04,0-.08-.04-.11-.04-.03-.09-.04-.14-.02-.05.03-.07.08-.06.13,0,.05.04.08.07.1.03.02.06.01.08,0,.02,0,.03-.01.03,0,0,0,0,0-.03.02-.02,0-.05.01-.09,0-.04-.01-.07-.05-.08-.11,0-.05.02-.12.07-.15.06-.03.12-.02.16.02.04.04.05.09.04.13,0,.04-.03.07-.05.08-.02.01-.03.02-.03.02Z"/>
              <path class="cls-13" d="m67.81,180.98s0,0,.02-.02c.01-.01.03-.04.04-.08,0-.04,0-.08-.04-.11-.03-.03-.09-.04-.14-.02-.05.03-.07.08-.06.13,0,.05.04.08.07.1.03.02.06.01.08,0,.02,0,.03-.01.03,0,0,0,0,0-.03.02-.02,0-.05.01-.09,0-.04-.01-.07-.05-.08-.11,0-.05.02-.12.07-.15.06-.03.12-.02.16.02.04.04.05.09.04.13,0,.04-.03.07-.05.08-.02.01-.03.02-.03.02Z"/>
              <path class="cls-13" d="m69.5,180.75c-.19.1-.42.03-.52-.15-.1-.19-.03-.42.15-.52.19-.1.42-.03.52.15.1.19.03.42-.15.52Z"/>
            </g>
            <path class="cls-13" d="m69.47,180.38l-.26.14-.03-.06.21-.11-.03-.05.05-.03.06.11Z"/>
          </g>
        </g>
        <g>
          <g>
            <g>
              <path class="cls-1" d="m74.67,172.54c-.08.04-.16,0-.22-.11l-.13-.23.45-.24.12.22c.06.11.04.2-.03.23-.05.02-.09.02-.13,0,.01.06-.01.11-.07.14Zm.08-.44l-.11.06.06.1c.03.05.06.07.1.05s.04-.06.01-.11l-.06-.1Zm-.13.33s.04-.06.01-.11l-.07-.12-.11.06.07.12c.03.05.06.07.1.05Z"/>
              <path class="cls-1" d="m74.84,172.93l-.11-.21h-.12s-.06-.1-.06-.1l.56-.04.06.1-.34.44-.06-.11.08-.09Zm.06-.08l.13-.16-.21.02.08.14Z"/>
              <path class="cls-1" d="m75.53,173.35l-.45.24-.05-.09.15-.37-.27.15-.06-.1.45-.24.05.09-.15.37.27-.15.06.1Z"/>
              <path class="cls-1" d="m75.4,173.77l-.1-.03-.11.06-.06-.1.45-.24.06.1-.21.11.32.09.06.12-.3-.08-.14.33-.07-.12.1-.24Z"/>
            </g>
            <g>
              <path class="cls-1" d="m72.74,173.47l-.04-.08-.11.06-.02-.04.11-.06-.13-.23.03-.02.39.07.03.05-.38-.07.1.18.1-.05.02.04-.1.05.04.08-.04.02Z"/>
              <path class="cls-1" d="m72.92,173.77c-.07.04-.15.02-.2-.08-.03-.06-.04-.13-.03-.18h.04s0,.1.02.16c.04.07.09.09.14.06.05-.03.06-.08.02-.16l-.02-.03.03-.02.21.04-.11-.21.04-.02.14.27-.03.02-.21-.04c.04.09.02.16-.05.2Z"/>
              <path class="cls-1" d="m73.1,174.1c-.07.04-.15.02-.21-.08-.03-.06-.04-.13-.03-.18h.04s0,.1.02.16c.04.07.09.09.14.06.05-.03.07-.08.01-.18l-.05-.09.22-.09.12.23-.04.02-.1-.19-.14.06.03.05c.07.12.04.2-.03.24Z"/>
              <path class="cls-1" d="m73.3,174.47c-.08.04-.16,0-.2-.07-.06-.11-.01-.21.12-.28.14-.08.26-.04.32.07.02.04.03.08.03.11h-.04s0-.06-.02-.09c-.05-.09-.14-.12-.25-.06,0,0-.02.01-.03.02.06,0,.11.03.14.09.04.08.03.17-.05.21Zm-.02-.04c.05-.03.07-.09.03-.15-.03-.06-.1-.09-.15-.06-.05.02-.07.09-.03.16.03.06.09.08.14.05Z"/>
              <path class="cls-1" d="m73.66,175.43l.08-.17-.18-.03-.03-.05.23.04.09-.2.03.05-.07.16.17.03.02.05-.21-.04-.09.21-.03-.05Z"/>
              <path class="cls-1" d="m73.83,175.74l.08-.17-.18-.03-.03-.05.23.04.09-.2.03.05-.07.16.17.03.02.05-.21-.04-.09.21-.03-.05Z"/>
              <path class="cls-1" d="m74,176.06l.08-.17-.18-.03-.03-.05.23.04.09-.2.03.05-.07.16.17.03.02.05-.21-.04-.09.21-.03-.05Z"/>
              <path class="cls-1" d="m74.17,176.38l.08-.17-.18-.03-.03-.05.23.04.09-.2.03.05-.07.16.17.03.02.05-.21-.04-.09.21-.03-.05Z"/>
              <path class="cls-1" d="m74.75,177.47l.08-.17-.18-.03-.03-.05.23.04.09-.2.03.05-.07.16.17.03.02.05-.21-.04-.09.21-.03-.05Z"/>
              <path class="cls-1" d="m74.92,177.79l.08-.17-.18-.03-.03-.05.23.04.09-.2.03.05-.07.16.17.03.02.05-.21-.04-.09.21-.03-.05Z"/>
              <path class="cls-1" d="m75.09,178.1l.08-.17-.18-.03-.03-.05.23.04.09-.2.03.05-.07.16.17.03.02.05-.21-.04-.09.21-.03-.05Z"/>
              <path class="cls-1" d="m75.26,178.42l.08-.17-.18-.03-.03-.05.23.04.09-.2.03.05-.07.16.17.03.02.05-.21-.04-.09.21-.03-.05Z"/>
              <path class="cls-1" d="m76.21,179.18l-.41.22-.02-.04.38-.2-.05-.1.04-.02.08.14Z"/>
              <path class="cls-1" d="m76.11,179.71c-.07.04-.15.02-.2-.08-.03-.06-.04-.13-.03-.18h.04s0,.1.02.16c.04.07.09.09.14.06.05-.03.06-.08.02-.16l-.02-.03.03-.02.21.04-.11-.21.04-.02.14.27-.03.02-.21-.04c.04.09.02.16-.05.2Z"/>
              <path class="cls-1" d="m76.32,180.13l-.04-.08-.11.06-.02-.04.11-.06-.13-.23.03-.02.39.07.03.05-.38-.07.1.18.1-.05.02.04-.1.05.04.08-.04.02Z"/>
              <path class="cls-1" d="m76.42,180.49l-.04.02-.16-.29.03-.02.26.08c.07.02.1.02.13,0,.05-.03.06-.08.03-.14-.03-.05-.06-.08-.11-.09v-.04c.06.01.11.05.15.12.05.08.03.16-.04.2-.04.02-.08.03-.17,0l-.21-.07.12.23Z"/>
            </g>
            <g>
              <path class="cls-1" d="m71.47,173.42c.06-.03.13,0,.16.05.02.03.02.07,0,.1h-.04s0-.06,0-.08c-.02-.04-.06-.05-.1-.03-.04.02-.05.06-.03.1.01.02.03.03.05.04v.04s-.07-.03-.09-.06c-.03-.06-.01-.13.04-.16Z"/>
              <path class="cls-1" d="m71.59,173.79l-.05-.09h-.05s-.03-.04-.03-.04l.25-.02.02.05-.15.2-.03-.05.03-.04Zm.03-.03l.06-.07h-.09s.03.07.03.07Z"/>
              <path class="cls-1" d="m71.67,174.03l.03-.07h0s-.02-.04-.02-.04l-.06.03-.02-.05.2-.11.05.09c.03.05.02.1-.03.12-.03.02-.06.01-.08,0l-.04.08-.03-.05Zm.14-.13l-.02-.04-.07.04.02.04s.04.04.06.02c.02-.01.03-.03.01-.06Z"/>
              <path class="cls-1" d="m71.72,174.08h.04s0,.05.01.07c.01.03.03.03.04.03.04-.02-.05-.12.02-.16.03-.02.08,0,.11.05.01.02.02.05.02.08h-.04s0-.04-.01-.06c-.01-.03-.03-.03-.04-.03-.04.02.05.12-.02.16-.03.02-.08,0-.11-.05-.02-.03-.02-.07-.02-.09Z"/>
              <path class="cls-1" d="m72.15,174.45l-.2.11-.02-.05.08-.04-.05-.09-.08.04-.02-.05.2-.11.02.05-.08.04.05.09.08-.04.02.05Z"/>
              <path class="cls-1" d="m72.07,174.53c.06-.03.13,0,.16.05.03.06.02.13-.04.16-.06.03-.13,0-.16-.05-.03-.06-.01-.13.04-.16Zm.09.17s.05-.06.03-.1c-.02-.04-.06-.05-.1-.03-.04.02-.05.06-.03.1.02.04.06.05.1.03Z"/>
              <path class="cls-1" d="m72.3,174.73l.02.05-.16.09.05.1-.04.02-.08-.15.2-.11Z"/>
              <path class="cls-1" d="m72.39,174.9l.05.09c.03.06.02.13-.04.16-.06.03-.12,0-.16-.06l-.05-.09.2-.11Zm-.11.17s.06.05.1.03c.04-.02.05-.06.03-.1l-.02-.04-.12.07.02.04Z"/>
              <path class="cls-1" d="m72.44,175.38l-.04.02-.08-.15.2-.11.08.15-.04.02-.06-.1-.04.02.05.09-.04.02-.05-.09-.05.02.06.11Z"/>
              <path class="cls-1" d="m72.49,175.56l.03-.07h0s-.02-.04-.02-.04l-.06.03-.02-.05.2-.11.05.09c.03.05.02.1-.03.12-.03.02-.06.01-.08,0l-.04.08-.03-.05Zm.14-.13l-.02-.04-.07.04.02.04s.04.04.06.02c.02-.01.03-.03.01-.06Z"/>
            </g>
            <g>
              <path class="cls-1" d="m70.68,173.81l.09.02s-.02.07,0,.09c.02.04.05.04.09.02l.18-.1-.07-.13.07-.04.12.22-.25.13c-.09.05-.17.03-.21-.06-.03-.05-.03-.11-.01-.15Z"/>
              <path class="cls-1" d="m70.85,174.13s.06,0,.08.02c.02.03,0,.06-.02.08-.03.02-.07,0-.08-.02-.02-.03,0-.06.02-.08Z"/>
              <path class="cls-1" d="m71.57,174.68l-.45.08-.05-.09.21-.22-.3.05-.05-.09.31-.33.05.09-.22.23.32-.05.04.08-.22.23.32-.06.05.08Z"/>
              <path class="cls-1" d="m71.59,174.71s.06,0,.08.03c.02.03,0,.06-.02.08-.03.02-.06,0-.08-.03-.02-.03,0-.06.02-.08Zm-.08.06l.05.09-.29.16-.05-.09.29-.16Z"/>
              <path class="cls-1" d="m71.71,174.88l.05.09-.4.22-.05-.08.4-.22Z"/>
              <path class="cls-1" d="m71.8,175.04l.05.08-.4.22-.05-.08.4-.22Z"/>
              <path class="cls-1" d="m71.86,175.21s.06,0,.08.03c.02.03,0,.06-.02.08-.03.02-.06,0-.08-.03-.02-.03,0-.06.02-.08Zm-.08.06l.05.09-.29.16-.05-.09.29-.16Z"/>
              <path class="cls-1" d="m71.88,175.75l-.17.09-.04-.08.04-.02s-.07-.02-.09-.07c-.04-.07-.02-.13.03-.16.05-.03.11-.01.16.08l.04.07s.05-.05.02-.1c-.02-.03-.04-.06-.07-.07l.04-.06s.08.06.1.11c.05.09.03.16-.05.21Zm-.12-.04l.03-.02-.03-.06s-.04-.04-.06-.03c-.02.01-.03.04,0,.07.02.03.04.05.07.04Z"/>
              <path class="cls-1" d="m72.18,176.33l-.17.09-.05-.09.15-.08s.06-.06.04-.09c-.02-.04-.06-.05-.11-.02l-.15.08-.05-.09.15-.08s.06-.06.04-.09c-.02-.04-.06-.05-.11-.02l-.15.08-.05-.09.29-.16.04.08-.03.02s.07.03.09.07c.02.04.02.08,0,.12.04,0,.08.04.1.08.04.07.02.14-.07.19Z"/>
              <path class="cls-1" d="m72.07,176.45h.08s0,.08.03.11c.02.04.04.05.06.04.05-.03-.1-.18.02-.24.06-.03.12,0,.17.08.02.04.04.09.03.13h-.08s0-.07-.02-.09c-.02-.04-.04-.05-.06-.04-.05.03.09.18-.02.24-.05.03-.12,0-.17-.09-.03-.05-.04-.11-.04-.14Z"/>
            </g>
            <g>
              <path class="cls-1" d="m74.06,179.79c.13-.07.23-.04.28.06.05.09.02.2-.11.27s-.23.04-.28-.06c-.05-.09-.02-.2.11-.27Zm.13.24c.09-.05.11-.1.08-.14-.02-.04-.08-.05-.16,0-.09.05-.11.1-.08.14.02.04.08.06.16,0Z"/>
              <path class="cls-1" d="m74.36,180.51c-.08.04-.16,0-.2-.08-.06-.11-.03-.21.1-.27.13-.07.25-.03.31.08.02.04.03.08.03.12h-.08s0-.05-.02-.08c-.03-.06-.09-.08-.17-.05.03.01.06.04.08.08.04.07.02.16-.05.2Zm-.05-.08s.04-.06.02-.1c-.02-.04-.06-.05-.09-.04-.03.02-.04.06-.02.1.02.04.06.05.09.03Z"/>
              <path class="cls-1" d="m74.79,180.51l.04.08-.61.1-.04-.08.61-.1Z"/>
              <path class="cls-1" d="m74.6,181.07l-.07.04-.15-.29.06-.03.22.07c.05.02.07.01.09,0,.03-.02.04-.05.01-.09-.02-.03-.04-.05-.08-.06v-.09c.07,0,.12.04.16.11.05.08.03.17-.04.2-.04.02-.08.03-.15,0l-.13-.04.09.16Z"/>
              <path class="cls-1" d="m74.81,181.45l-.03-.06-.08.04-.05-.09.08-.04-.11-.21.06-.03.34.05.05.09-.32-.04.06.1.07-.04.04.08-.07.04.03.06-.07.04Z"/>
            </g>
            <g class="cls-7">
              <path class="cls-1" d="m77.25,178.07c.24-.22.27-.59.1-.86-.05-.09-.12-.16-.2-.22-.2-.15-.5-.16-.68.01-.14.14-.16.37-.14.57.02.21.08.44.25.56.16.12.4.11.58.01.03-.02.07-.04.1-.07Z"/>
            </g>
          </g>
          <g class="cls-7">
            <path class="cls-1" d="m80.22,179.52l-4.83-8.99c-.09-.18-.31-.24-.49-.15l-1.61.87c-.09.78.26,1.6.78,2.21.61.72,1.42,1.24,2.17,1.82.75.58,1.47,1.26,1.77,2.16.28.85.16,1.77.18,2.66,0,.29.04.59.1.88l1.79-.96c.18-.09.24-.31.15-.49Z"/>
          </g>
        </g>
      </g>
      <g>
        <path class="cls-15" d="m70.54,193.59l4.06-3.28c1.78-1.43,2.93-3.5,3.22-5.76l.22-1.73-12.2-2.47s-1.14,3.69,3.45,4.61c-4.07,1.76-5.59,5.44-6.7,9.44l7.95-.81Z"/>
        <path class="cls-11" d="m65.52,188.07c.06.03.32-.5,1.06-1.18.72-.66,2.01-1.48,3.73-1.5l1.31-.02-1.23-.45c-.88-.32-1.83-.68-2.84-1.05l.06.03c-1.03-.64-1.94-1.81-1.77-3.16.01-.1.04-.22.06-.29l-.34.19c3.42.84,6.52,1.56,8.78,1.95,1.13.2,2.05.33,2.69.4.64.07.99.09,1,.05.01-.08-1.37-.35-3.61-.84-2.24-.49-5.3-1.26-8.73-2.11l-.27-.07-.08.26c-.04.14-.06.26-.08.4-.1.8.11,1.6.52,2.23.4.64.96,1.1,1.52,1.47l.03.02h.03c1.01.36,1.98.69,2.86,1l.08-.47c-1.88.08-3.22,1.04-3.92,1.79-.71.78-.89,1.37-.86,1.38Z"/>
      </g>
    </g>
  </g>
</svg>